<?xml version="1.0" encoding="UTF-8" standalone="no"?><!DOCTYPE svg PUBLIC "-//W3C//DTD SVG 1.1//EN" "http://www.w3.org/Graphics/SVG/1.1/DTD/svg11.dtd"><svg width="100%" height="100%" viewBox="0 0 3559 414" version="1.1" xmlns="http://www.w3.org/2000/svg" xmlns:xlink="http://www.w3.org/1999/xlink" xml:space="preserve" style="fill-rule:evenodd;clip-rule:evenodd;stroke-linejoin:round;stroke-miterlimit:1.41421;"><rect id="Artboard1" x="0" y="0" width="3558.18" height="413.789" style="fill:none;"/><g><g><g transform="matrix(1.82149,0,0,1.82149,1167.47,63.4172)"><text x="216.319px" y="113.14px" style="font-family:'Arial-BoldMT', 'Arial', sans-serif;font-weight:700;font-size:8.864px;">F</text><text x="223.166px" y="113.14px" style="font-family:'Arial-BoldMT', 'Arial', sans-serif;font-weight:700;font-size:8.864px;">A</text><text x="231.157px" y="113.14px" style="font-family:'Arial-BoldMT', 'Arial', sans-serif;font-weight:700;font-size:8.864px;">S</text><text x="237.869px" y="113.14px" style="font-family:'Arial-BoldMT', 'Arial', sans-serif;font-weight:700;font-size:8.864px;">H</text><text x="245.57px" y="113.14px" style="font-family:'Arial-BoldMT', 'Arial', sans-serif;font-weight:700;font-size:8.864px;">I</text><text x="249.544px" y="113.14px" style="font-family:'Arial-BoldMT', 'Arial', sans-serif;font-weight:700;font-size:8.864px;">O</text><text x="258.107px" y="113.14px" style="font-family:'Arial-BoldMT', 'Arial', sans-serif;font-weight:700;font-size:8.864px;">N</text><text x="269.865px" y="113.14px" style="font-family:'Arial-BoldMT', 'Arial', sans-serif;font-weight:700;font-size:8.864px;">&amp;</text><text x="280.839px" y="113.14px" style="font-family:'Arial-BoldMT', 'Arial', sans-serif;font-weight:700;font-size:8.864px;">B</text><text x="288.24px" y="113.14px" style="font-family:'Arial-BoldMT', 'Arial', sans-serif;font-weight:700;font-size:8.864px;">U</text><text x="295.941px" y="113.14px" style="font-family:'Arial-BoldMT', 'Arial', sans-serif;font-weight:700;font-size:8.864px;">S</text><text x="302.653px" y="113.14px" style="font-family:'Arial-BoldMT', 'Arial', sans-serif;font-weight:700;font-size:8.864px;">I</text><text x="306.627px" y="113.14px" style="font-family:'Arial-BoldMT', 'Arial', sans-serif;font-weight:700;font-size:8.864px;">N</text><text x="314.618px" y="113.14px" style="font-family:'Arial-BoldMT', 'Arial', sans-serif;font-weight:700;font-size:8.864px;">E</text><text x="321.53px" y="113.14px" style="font-family:'Arial-BoldMT', 'Arial', sans-serif;font-weight:700;font-size:8.864px;">S</text><text x="328.242px" y="113.14px" style="font-family:'Arial-BoldMT', 'Arial', sans-serif;font-weight:700;font-size:8.864px;">S</text><text x="338.727px" y="113.14px" style="font-family:'Arial-BoldMT', 'Arial', sans-serif;font-weight:700;font-size:8.864px;">T</text><text x="345.441px" y="113.14px" style="font-family:'Arial-BoldMT', 'Arial', sans-serif;font-weight:700;font-size:8.864px;">R</text><text x="352.843px" y="113.14px" style="font-family:'Arial-BoldMT', 'Arial', sans-serif;font-weight:700;font-size:8.864px;">E</text><text x="359.855px" y="113.14px" style="font-family:'Arial-BoldMT', 'Arial', sans-serif;font-weight:700;font-size:8.864px;">N</text><text x="367.845px" y="113.14px" style="font-family:'Arial-BoldMT', 'Arial', sans-serif;font-weight:700;font-size:8.864px;">D</text><text x="375.836px" y="113.14px" style="font-family:'Arial-BoldMT', 'Arial', sans-serif;font-weight:700;font-size:8.864px;">S</text></g><path d="M1861.8,196.536l0,-55.669l-28.192,0l0,50.197c0,6.779 0.476,15.463 -4.162,18.437c-3.45,2.261 -26.406,1.903 -29.499,0.357c-5.592,-2.617 -4.878,-13.561 -4.878,-16.177l-27.12,0l0,2.973c0,8.446 -0.832,21.648 6.425,29.499c7.85,8.089 17.366,7.614 27.952,7.614l19.745,0c9.754,0 25.217,-0.12 32.711,-7.851c7.732,-8.207 7.018,-23.909 7.018,-29.38m-98.845,-0.596l0,-19.27c0,-6.541 0.832,-20.816 -6.423,-27.714c-8.446,-8.207 -21.648,-8.089 -32.831,-8.089l-20.003,0l0,22.72l12.63,0c4.519,0 13.084,-0.833 17.127,6.185c0.833,1.308 1.429,6.066 1.429,11.301l0,12.608c0,4.995 -0.596,9.873 -1.429,11.299c-4.043,6.9 -12.608,6.067 -17.127,6.067l-12.63,0l0,22.72l19.41,0c6.541,0 25.573,-0.357 33.424,-8.326c7.494,-7.614 6.423,-21.53 6.423,-29.501m-83.977,37.827l19.401,0l0,-22.72l-13.692,0c-4.64,0 -13.204,0.833 -17.366,-6.067c-0.833,-1.426 -1.19,-6.065 -1.19,-11.299l0,-12.608c0,-5.949 0.357,-9.993 1.19,-11.301c4.162,-7.018 12.726,-6.185 17.366,-6.185l13.692,0l0,-22.72l-20.115,0c-11.062,0 -24.266,-0.237 -32.71,8.089c-8.208,7.969 -7.732,21.173 -7.732,27.714l0,19.27c0,6.186 0.236,21.887 7.732,29.501c7.849,7.969 24.739,8.326 33.424,8.326m-29.779,-92.894l-18.394,0l0,-0.006l-107.291,0l0,22.72l39.253,0l0,70.18l28.071,0l0,-70.18l43.63,0c0,-15.585 14.731,-22.714 14.731,-22.714" style="fill-rule:nonzero;"/></g></g><g><path d="M880.425,236.76l16.912,0l0,7.017c0,10.254 2.518,16.192 9.895,16.192c7.376,0 9.894,-5.938 9.894,-16.192l0,-15.292c0,-11.876 -3.058,-15.654 -15.292,-15.654l-4.497,0l0,-15.111l5.757,0c10.795,0 13.494,-2.88 13.494,-15.654l0,-14.392c0,-11.154 -3.419,-13.853 -8.456,-13.853c-7.377,0 -10.792,5.731 -10.792,15.987l-0.038,4.522l-16.911,0c-0.653,-24.975 6.332,-33.462 27.741,-33.462c21.049,0 25.367,9.895 25.367,34.543c0,22.488 -2.879,26.985 -15.832,29.324l0,0.36c11.154,1.8 16.371,4.678 16.371,35.802c0,23.389 -5.396,32.025 -26.806,32.025c-21.409,0 -26.807,-8.636 -26.807,-32.025l0,-4.137Z" style="fill-rule:nonzero;"/><path d="M1002,175.23l-16.535,-0.131l0,-6.297c-0.134,-10.17 -3.829,-13.902 -11.025,-13.902c-7.558,0 -10.076,5.937 -10.076,16.193l0,23.927l0.36,0c4.137,-5.577 9.175,-7.556 16.912,-7.556c16.73,0 20.508,12.774 20.508,31.305l0,22.129c0,23.388 -5.397,32.025 -28.785,32.025c-18.89,0 -25.907,-7.017 -25.907,-29.867l0,-70.165c0,-23.388 7.556,-32.025 26.988,-32.025c19.07,0 26.625,8.637 27.56,22.85l0,11.514Zm-16.797,38.321c-0.136,-7.59 -2.757,-12.834 -10.763,-12.053c-6.985,0.682 -10.076,4.857 -10.076,16.371l0,25.908c0,8.635 0,16.191 10.076,16.191c12.044,0 10.693,-10.743 10.763,-16.191l0,-30.226Z" style="fill-rule:nonzero;"/><path d="M1015.65,236.76l16.912,0l0,11.514c-0.565,7.473 1.779,11.695 8.977,11.695c10.614,0 10.614,-10.795 10.614,-18.352l0,-27.707c0,-9.175 -4.137,-12.412 -9.716,-12.412c-5.936,0 -9.894,4.678 -9.894,13.493l0,5.217l-16.912,0l0,-78.261l49.26,0l0,14.032l-32.348,0l0,39.761l0.359,0c4.678,-6.657 9.716,-8.276 16.193,-8.276c9.535,0 19.97,5.757 19.97,22.309l0,37.062c0,16.012 -7.556,26.087 -28.066,26.087c-17.812,0 -25.914,-8.719 -25.349,-22.128l0,-14.034Z" style="fill-rule:nonzero;"/><path d="M1081.59,142.658l15.093,0c10.477,0 15.98,4.084 15.98,13.673l0,100.856c0,9.586 -5.503,13.67 -15.98,13.67l-15.093,0l0,-128.199Zm14.383,122.873c6.393,0 9.588,-2.307 9.588,-7.812l0,-101.923c0,-5.502 -3.195,-7.811 -9.588,-7.811l-7.28,0l0,117.546l7.28,0Z" style="fill-rule:nonzero;"/><path d="M1124.38,142.658l24.326,0l0,5.327l-17.222,0l0,54.334l16.157,0l0,5.326l-16.157,0l0,57.886l17.262,0l0,5.326l-24.366,0l0,-128.199Z" style="fill-rule:nonzero;"/><path d="M1161.13,258.429c0,4.262 1.597,7.811 8.168,7.811c6.037,0 8.7,-2.307 8.7,-8.168l0,-22.016c0,-6.747 -1.242,-10.653 -3.727,-16.514l-14.915,-28.232c-3.02,-5.682 -4.617,-12.429 -4.617,-17.402l0,-18.643c0,-8.346 5.681,-13.318 14.737,-13.318c9.589,0 14.559,3.552 14.559,11.898l0,22.905l-6.391,0l0,-22.195c0,-5.15 -2.665,-7.28 -7.635,-7.28c-4.973,0 -7.636,3.372 -7.636,7.634l0,19.888c0,4.262 0.888,7.989 2.841,12.251l14.559,27.878c3.02,6.037 4.473,12.217 4.454,19.353l0,24.15c0.128,8.148 -3.211,13.138 -14.396,13.138c-11.01,0 -15.092,-4.971 -15.092,-13.671l0,-22.729l6.391,0l0,23.262Z" style="fill-rule:nonzero;"/><rect x="1195.8" y="142.658" width="7.101" height="128.199" style="fill-rule:nonzero;"/><path d="M1231.97,209.066l13.548,0l0,58.596l-0.887,0.533c-2.841,1.774 -7.99,3.373 -14.561,3.373c-9.942,0 -15.625,-4.97 -15.625,-13.85l0,-101.921c0,-8.878 5.683,-13.849 15.625,-13.849c9.943,0 15.448,4.971 15.448,13.849l0,20.774l-7.102,0l0,-19.886c0,-5.682 -3.551,-9.41 -8.346,-9.41c-4.794,0 -8.524,3.728 -8.524,9.41l0,101.567c0,4.97 3.73,7.99 8.524,7.99c3.374,0 6.571,-1.067 8.346,-2.131l0,-49.718l-6.446,0l0,-5.327Z" style="fill-rule:nonzero;"/><path d="M1257.02,142.658l10.654,0l12.075,82.744c1.419,10.12 3.489,23.705 5.798,39.152c0,0 -1.361,-33.294 -1.361,-40.217l0,-81.679l7.103,0l0,128.199l-10.653,0l-12.43,-81.677c-1.067,-6.927 -5.302,-40.519 -5.302,-40.519c0.354,16.69 1.218,32.349 1.218,36.611l0,85.585l-7.102,0l0,-128.199Z" style="fill-rule:nonzero;"/></g><g><path d="M2545.74,234.443l0,-14.205l-20.938,0l0,-14.78l18.639,0l0,-13.959l-18.639,0l0,-13.22l20.61,0l0,-14.041l-38.346,0l0,70.205l38.674,0Z" style="fill-rule:nonzero;"/><path d="M2545.74,234.443l0,-14.205l-20.938,0l0,-14.78l18.639,0l0,-13.959l-18.639,0l0,-13.22l20.61,0l0,-14.041l-38.346,0l0,70.205l38.674,0Z" style="fill-rule:nonzero;"/><path d="M2504.77,234.443l-19.05,-37.853l16.34,-32.352l-19.46,0l-12.563,27.179l0,-27.179l-17.489,0l0,70.205l17.489,0l0,-28.903l13.877,28.903l20.856,0Z" style="fill-rule:nonzero;"/><path d="M2504.77,234.443l-19.05,-37.853l16.34,-32.352l-19.46,0l-12.563,27.179l0,-27.179l-17.489,0l0,70.205l17.489,0l0,-28.903l13.877,28.903l20.856,0Z" style="fill-rule:nonzero;"/><path d="M2448.77,213.587c0,-21.924 -27.754,-21.267 -27.754,-31.202c0,-3.203 1.971,-5.502 6.569,-5.502c3.859,0 8.375,1.56 13.302,3.941l5.748,-11.988c-6.405,-3.941 -13.056,-5.912 -20.199,-5.912c-13.631,0 -23.074,7.472 -23.074,20.61c0,21.924 27.261,20.774 27.261,31.366c0,3.942 -2.381,6.241 -6.979,6.241c-4.27,0 -9.443,-1.807 -14.944,-4.763l-5.748,12.81c7.636,4.598 14.369,6.486 22.006,6.486c12.973,0 23.812,-7.061 23.812,-22.087" style="fill-rule:nonzero;"/><path d="M2448.77,213.587c0,-21.924 -27.754,-21.267 -27.754,-31.202c0,-3.203 1.971,-5.502 6.569,-5.502c3.859,0 8.375,1.56 13.302,3.941l5.748,-11.988c-6.405,-3.941 -13.056,-5.912 -20.199,-5.912c-13.631,0 -23.074,7.472 -23.074,20.61c0,21.924 27.261,20.774 27.261,31.366c0,3.942 -2.381,6.241 -6.979,6.241c-4.27,0 -9.443,-1.807 -14.944,-4.763l-5.748,12.81c7.636,4.598 14.369,6.486 22.006,6.486c12.973,0 23.812,-7.061 23.812,-22.087" style="fill-rule:nonzero;"/><path d="M2406.07,164.238l-18.475,0l-5.337,15.519l-3.12,9.361l-3.367,-9.607l-5.337,-15.273l-19.46,0l19.46,44.75l0,25.455l16.669,0l0,-25.455l18.967,-44.75Z" style="fill-rule:nonzero;"/><path d="M2406.07,164.238l-18.475,0l-5.337,15.519l-3.12,9.361l-3.367,-9.607l-5.337,-15.273l-19.46,0l19.46,44.75l0,25.455l16.669,0l0,-25.455l18.967,-44.75Z" style="fill-rule:nonzero;"/><path d="M2349.17,227.71l0,-63.472l-17.818,0l0,62.733c0,6.158 -1.478,9.607 -6.815,9.607c-1.97,0 -4.187,-0.329 -6.158,-0.657l-0.246,13.876c2.791,0.739 5.83,1.068 10.017,1.068c12.317,-0.082 21.02,-8.211 21.02,-23.155" style="fill-rule:nonzero;"/><path d="M2349.17,227.71l0,-63.472l-17.818,0l0,62.733c0,6.158 -1.478,9.607 -6.815,9.607c-1.97,0 -4.187,-0.329 -6.158,-0.657l-0.246,13.876c2.791,0.739 5.83,1.068 10.017,1.068c12.317,-0.082 21.02,-8.211 21.02,-23.155" style="fill-rule:nonzero;"/><path d="M2307.62,199.053c0,14.944 -3.777,21.924 -13.958,21.924c-0.411,0 -3.038,-0.083 -4.516,-0.247l0,-42.862c1.478,-0.082 3.859,-0.082 4.434,-0.082c10.838,0 14.04,6.816 14.04,21.267m18.311,-0.246c0,-26.768 -9.853,-34.815 -32.598,-34.815c-7.225,0 -14.698,0.082 -21.759,0.246l0,70.287c5.666,0.082 11.66,0.246 20.528,0.246c23.483,-0.082 33.829,-12.07 33.829,-35.964m-77.266,-13.631c0,4.024 -1.642,7.801 -9.196,7.801l-4.599,0l0,-15.191c1.561,-0.082 3.121,-0.246 4.599,-0.246c7.8,0 9.196,3.12 9.196,7.636m20.364,49.267l-12.481,-32.27c6.569,-2.956 10.181,-9.607 10.181,-17.9c0,-12.727 -7.964,-20.117 -25.864,-20.117c-7.555,0 -17.162,0 -23.484,0.246l0,70.123l17.407,0l0,-28.328l4.599,0l9.524,28.246l20.118,0Zm-73.818,-35.226c0,15.765 -3.12,22.088 -11.66,22.088c-9.032,0 -11.495,-7.062 -11.495,-22.006c0,-15.847 3.038,-22.087 11.66,-22.087c8.95,0 11.495,6.979 11.495,22.005m18.557,-0.082c0,-22.827 -5.748,-36.129 -29.56,-36.129l-0.821,0c-18.228,0 -29.888,10.1 -29.888,36.704c0,22.827 5.666,36.046 29.56,36.046l0.739,0c18.31,-0.082 29.97,-10.099 29.97,-36.621m-63.882,35.308l0,-70.205l-15.929,0l0,37.114l-17.736,-37.114l-19.707,0l0,70.287l15.93,0l0,-39.331l18.474,39.331l18.968,0l0,-0.082Zm157.734,-35.39c0,14.944 -3.777,21.924 -13.958,21.924c-0.411,0 -3.038,-0.083 -4.516,-0.247l0,-42.862c1.478,-0.082 3.859,-0.082 4.434,-0.082c10.838,0 14.04,6.816 14.04,21.267m18.311,-0.246c0,-26.768 -9.853,-34.815 -32.598,-34.815c-7.225,0 -14.698,0.082 -21.759,0.246l0,70.287c5.666,0.082 11.66,0.246 20.528,0.246c23.483,-0.082 33.829,-12.07 33.829,-35.964m-77.266,-13.631c0,4.024 -1.642,7.801 -9.196,7.801l-4.599,0l0,-15.191c1.561,-0.082 3.121,-0.246 4.599,-0.246c7.8,0 9.196,3.12 9.196,7.636m20.364,49.267l-12.481,-32.27c6.569,-2.956 10.181,-9.607 10.181,-17.9c0,-12.727 -7.964,-20.117 -25.864,-20.117c-7.555,0 -17.162,0 -23.484,0.246l0,70.123l17.407,0l0,-28.328l4.599,0l9.524,28.246l20.118,0Zm-73.818,-35.226c0,15.765 -3.12,22.088 -11.66,22.088c-9.032,0 -11.495,-7.062 -11.495,-22.006c0,-15.847 3.038,-22.087 11.66,-22.087c8.95,0 11.495,6.979 11.495,22.005m18.557,-0.082c0,-22.827 -5.748,-36.129 -29.56,-36.129l-0.821,0c-18.228,0 -29.888,10.1 -29.888,36.704c0,22.827 5.666,36.046 29.56,36.046l0.739,0c18.31,-0.082 29.97,-10.099 29.97,-36.621m-63.882,35.308l0,-70.205l-15.929,0l0,37.114l-17.736,-37.114l-19.707,0l0,70.287l15.93,0l0,-39.331l18.474,39.331l18.968,0l0,-0.082Z" style="fill-rule:nonzero;"/><g><path d="M2569.06,164.402c7.061,-0.082 14.451,-0.246 21.595,-0.246c22.498,0 32.269,7.965 32.269,34.569c0,23.729 -10.264,35.636 -33.501,35.636c-8.786,0 -14.78,-0.083 -20.363,-0.247l0,-69.712Zm17.489,56.164c1.478,0.082 4.024,0.246 4.434,0.246c10.1,0 13.795,-6.979 13.795,-21.759c0,-14.287 -3.12,-21.102 -13.877,-21.102c-0.493,0 -2.874,0 -4.352,0.082l0,42.533Z" style="fill-rule:nonzero;"/><path d="M2657.83,234.196l-13.466,-28.738l-0.328,0l0,28.738l-17.326,0l0,-69.794l17.326,0l0,27.015l0.328,0l12.152,-27.015l19.296,0l-16.175,32.188l18.885,37.606l-20.692,0Z" style="fill-rule:nonzero;"/></g><rect x="2550.67" y="220.648" width="13.795" height="13.795"/></g><g><path d="M237.997,167.041c0,0 -48.991,45.195 -52.958,48.732c-0.649,-2.372 -1.213,-4.206 -1.213,-9.629c0,-15.618 9.775,-21.514 19.175,-21.514c1.426,0 5.683,0.073 9.506,2.204l15.046,-16.816c-3.646,-1.791 -11.444,-5.22 -24.563,-5.22c-27.394,0 -46.896,16.908 -46.896,40.676c0,25.835 15.767,43.509 46.92,43.509c29.149,0 46.923,-16.945 46.923,-43.331c0,-16.089 -8.942,-25.367 -10.648,-27.298l12.26,-11.313l-13.552,0l0,0Zm-35.1,61.989c-5.865,0 -10.502,-1.98 -13.44,-4.833c0,0 30.244,-27.832 30.885,-28.439c0.313,0.675 1.622,3.837 1.622,10.362c0,6.526 -2.029,22.91 -19.067,22.91Z" style="fill-rule:nonzero;"/><path d="M314.481,215.71c11.045,-0.127 27.505,-3.93 27.505,-25.23c0,-21.299 -21.198,-23.284 -37.776,-23.284l-42.397,0l0,79.43l27.878,0l0,-27.983l7.851,0l17.849,27.983l33.327,0l-21.194,-28.612l-13.043,-2.304Zm-13.441,-13.353l-11.349,0l0,-18.529l11.349,0c8.644,0 13.437,2.359 13.437,9.264c0.002,6.767 -4.473,9.265 -13.437,9.265Z" style="fill-rule:nonzero;"/><path d="M400.358,197.038c-17.808,-1.701 -21.329,-2.712 -21.329,-6.964c0,-4.049 5.458,-6.185 15.38,-6.185c9.922,0 18.895,3.079 21.774,5.138c0.695,-0.971 11.741,-16.39 11.741,-16.39c-8.758,-4.789 -21.157,-7.829 -38.607,-7.829c-15.478,0 -38.688,5.429 -38.688,27.986c0,22.397 31.711,23.511 37.368,24.239c9.206,1.178 15.386,2.535 15.386,6.987c0,2.643 -1.735,6.349 -15.097,6.349c-13.506,0 -22.169,-5.109 -25.836,-7.921c-0.403,0.585 -11.955,16.225 -11.955,16.225c2.376,1.812 13.93,10.318 38.779,10.318c28.568,0 41.878,-11.295 41.878,-27.535c0,-16.642 -12.179,-22.638 -30.794,-24.418Z" style="fill-rule:nonzero;"/><path d="M469.261,229.414l0.013,-14.015l36.282,0l0,-17.107l-36.282,0l0,-13.863l44.994,0l0,-17.232l-72.723,0l0,79.431l73.028,0l-0.011,-17.214l-45.301,0Z" style="fill-rule:nonzero;"/><rect x="622.059" y="220.558" width="26.058" height="26.07"/><path d="M584.581,198.192l2.916,20.929c0,0 -4.264,-8.815 -12.302,-21.775c-0.232,-0.372 -19.753,-30.15 -19.753,-30.15l-29.431,0l0,79.431l25.969,0l0,-31.594l-3.104,-19.397c0,0 2.002,3.74 4.398,8.014c2.289,4.092 4.579,7.502 4.579,7.502l22.81,35.477l29.91,0l0,-79.432l-25.992,0l0,30.995Z" style="fill-rule:nonzero;"/><path d="M139.14,207.58c-3.529,-0.601 -12.399,-1.977 -12.399,-1.977l11.644,-2.072c3.246,-1.621 8.495,-6.815 8.495,-16.807c0,-16.035 -14.35,-19.528 -31.958,-19.528l-48.805,0l0,79.429l49.758,0c21.763,0 33.399,-6.093 33.34,-22.753c-0.031,-9.142 -5.696,-14.418 -10.075,-16.292Zm-45.571,-23.629l16.434,0c6.558,0 8.784,2.998 8.784,6.286c0,3.289 -0.526,7.442 -8.811,7.442l-16.407,0l0,-13.728Zm16.407,45.572l-16.407,0l0,-15.411l16.407,0c7.882,0 10.997,2.792 10.941,7.469c-0.057,4.863 -2.497,7.942 -10.941,7.942Z" style="fill-rule:nonzero;"/></g><path id="Vækstfonden" d="M3135.09,213.631c0,5.267 -2.975,9.072 -11.342,9.144l-32.044,0l0,-5.223l32.359,0c2.97,0 4.364,-1.318 4.364,-3.879c0,-2.532 -1.265,-4.081 -4.076,-4.081c-0.912,0 -23.826,0 -23.826,0c-4.79,0 -8.99,-2.938 -8.99,-9.033c0,-6.104 4.117,-9.521 9.249,-9.521l33.519,0l0,5.27l-32.119,0c-2.687,-0.017 -4.145,1.444 -4.145,3.728c0,2.341 1.244,3.741 4.283,3.741c2.298,0 20.966,0 22.152,0c6.311,0 10.616,2.77 10.616,9.854m120.371,9.333c3.743,0 5.789,-0.027 8.24,-0.186c8.386,-0.55 12.959,-4.073 13.415,-11.218c0,0 0.164,-1.774 0.164,-5.163c0,-3.402 -0.164,-5.454 -0.164,-5.454c-0.4,-6.405 -4.059,-9.594 -12.766,-9.905c-2.72,-0.1 -4.852,-0.213 -9.134,-0.213c-4.303,0 -8.225,0.213 -8.225,0.213c-7.8,0.107 -12.358,3.615 -12.905,10.35c0,0 -0.182,1.217 -0.182,5.343c0,4.13 0.182,5.827 0.182,5.827c0.609,7.254 4.396,9.743 13.672,10.22c2.682,0.145 3.954,0.186 7.703,0.186m7.568,-26.656c5.354,0.378 7.041,1.017 7.439,6.539c0,0 0.144,0.974 0.144,3.31c0,2.309 -0.144,4.677 -0.144,4.677c-0.341,4.032 -2.223,6.14 -6.858,6.718c-1.576,0.196 -4.198,0.196 -8.186,0.196c-3.992,0 -5.349,0 -7.666,-0.196c-5.114,-0.409 -6.635,-1.87 -6.956,-5.962c0,0 -0.194,-2.405 -0.194,-5.072c0,-2.694 0.194,-4.181 0.194,-4.181c0.366,-4.93 2.903,-5.825 6.279,-6.029c0,0 4.686,-0.217 8.187,-0.217c4.407,0 5.771,0.065 7.761,0.217Zm83.38,-5.27c0,0 -0.722,0 -1.025,0c0,0.487 0,31.263 0,31.74c0.268,0 11.383,0.115 18.096,0.115c6.276,0 8.005,-0.115 8.005,-0.115c10.569,-0.536 14.193,-3.076 14.986,-11.001c0,0 0.277,-1.893 0.277,-4.91c0,-3.014 -0.182,-5.095 -0.182,-5.095c-0.544,-8.311 -5.99,-10.54 -15.308,-10.734c0,0 -4.594,-0.089 -10.224,-0.089c-5.669,0 -14.625,0.089 -14.625,0.089m5.857,5.263c0,0 3.903,-0.086 8.688,-0.086c4.762,0 10.29,0.093 10.29,0.093c5.365,0.224 8.267,1.697 8.663,6.521c0,0 0.244,1.376 0.244,3.664c0,2.277 -0.229,4.385 -0.229,4.385c-0.46,5.145 -3.479,6.405 -9.298,6.666c0,0 -2.43,0.117 -6.644,0.117c-4.251,0 -11.941,-0.117 -11.941,-0.117l0,-21.243l0.227,0Zm-385.687,-5.263l-7.661,0.004l-17.66,26.51l-6.982,0l-15.683,-26.514l-7.845,0l19.448,31.74l15.024,0l21.359,-31.74m213.979,0c0,0 -40.263,0.004 -40.255,0c0.012,0 0,5.225 0,5.225l16.781,0l0,26.512l6.692,0l0,-26.512l16.781,0l0,-5.225m-185.416,22.854c-0.178,4.462 2.771,8.886 8.932,8.886l27.759,0l0,-5.216l-25.684,0c-2.984,0 -4.322,-1.356 -4.322,-3.595l0,-4.688l30.006,0l0,-5.314l-36.691,-0.004l0,9.931m-20.03,-15.202c-0.007,0.006 -16.315,24.088 -16.315,24.088l7.585,0l14.078,-20.67c3.487,-4.852 5.849,-5.659 11.997,-5.845l39.376,0l0,-5.225l-41.826,0c-6.666,0 -11.278,2.675 -14.895,7.652m358.878,24.088l0,-31.733l-6.697,0l0,26.507c0,0 -1.15,0 -1.476,0c-2.918,0 -4.458,-0.491 -6.971,-4.406c-3.552,-5.851 -8.273,-13.938 -9.866,-16.036c-2.53,-3.252 -5.707,-6.065 -11.295,-6.065c-4.01,0 -9.195,0 -9.195,0l0,31.733l6.208,0l0,-26.463c0,0 1.224,0 1.878,0c3.284,0 5.61,1.705 7.988,5.451c1.337,2.152 5.064,8.172 8.43,13.699c3.166,5.242 5.646,7.313 13.567,7.313c4.332,0 7.429,0 7.429,0m158.759,0l0,-31.733l-6.667,0l0,26.507c0,0 -1.155,0 -1.469,0c-2.927,0 -4.487,-0.491 -6.993,-4.406c-3.567,-5.851 -8.259,-13.938 -9.876,-16.036c-2.48,-3.252 -5.684,-6.065 -11.264,-6.065c-4.027,0 -9.241,0 -9.241,0l0,31.733l6.229,0l0,-26.463c0,0 1.214,0 1.869,0c3.306,0 5.63,1.705 8.008,5.451c1.334,2.152 5.05,8.172 8.39,13.699c3.189,5.242 5.681,7.313 13.618,7.313c4.328,0 7.396,0 7.396,0m-294.275,-26.518l28.561,0l0,-5.222c0,0 -26.874,0 -30.913,0c-5.355,0 -8.264,3.022 -8.264,8.295l-0.003,23.442l6.741,0l0,-13.501l32.436,0l0,-5.309l-32.436,0l0,-3.492c0,-3.235 1.429,-4.213 3.878,-4.213m208.307,21.292c-2.109,0 -3.315,-1.027 -3.315,-3.708l0,-4.565l32.445,0l0,-5.316l-32.445,0.001l0,-3.753c0,-2.475 0.735,-3.945 3.571,-3.945l28.869,0l0.003,-5.228c0,0 -26.392,0 -30.469,0c-5.098,0 -8.702,2.813 -8.702,8.346c0,0 0.065,15.728 0.065,15.789c0,4.776 3.202,7.602 9.277,7.602l29.831,0l0,-5.223c-0.21,0 -29.13,0 -29.13,0m-358.143,-26.514c-0.42,0 -6.278,0 -6.686,0c0,0.487 0,31.263 0,31.74c0.408,0 6.266,0 6.686,0l0,-31.74Zm27.756,31.74l10.915,0l-26.103,-16.158l25.17,-15.583l-9.982,0c-0.007,0.004 -0.027,0.004 -0.027,0.004c-0.211,0.094 -21.785,12.924 -21.785,12.924l0,5.313l21.812,13.5Z" style="fill-rule:nonzero;"/></svg>