<?xml version="1.0" encoding="UTF-8" standalone="no"?><!DOCTYPE svg PUBLIC "-//W3C//DTD SVG 1.1//EN" "http://www.w3.org/Graphics/SVG/1.1/DTD/svg11.dtd"><svg width="100%" height="100%" viewBox="0 0 1920 1080" version="1.1" xmlns="http://www.w3.org/2000/svg" xmlns:xlink="http://www.w3.org/1999/xlink" xml:space="preserve" style="fill-rule:evenodd;clip-rule:evenodd;stroke-linecap:round;stroke-linejoin:round;"><g><path d="M225.48,398.668c3.935,-51.446 22.628,-97.195 57.176,-131.743c105.125,-105.125 314.94,-64.544 472.406,92.923c157.502,157.502 198.873,368.107 93.748,473.231c-34.548,34.548 -80.382,53.156 -131.944,56.975c-3.976,51.718 -22.702,97.672 -57.258,132.228c-105.101,105.101 -314.652,62.676 -472.154,-94.826c-157.466,-157.467 -199.101,-366.228 -94.001,-471.328c34.557,-34.556 80.425,-53.368 132.027,-57.46l0,0Zm491.386,491.386c8.12,-105.617 -45.278,-235.275 -151.007,-341.004c-105.704,-105.705 -234.999,-158.738 -340.379,-150.382c-8.036,105.061 45.472,233.88 151.177,339.585c105.729,105.729 234.912,159.601 340.209,151.801Z" style="fill:none;stroke:#e6e6e6;stroke-width:2px;"/><path d="M282.656,266.925l-189.203,189.203" style="fill:none;stroke:#e6e6e6;stroke-width:2px;stroke-linecap:butt;stroke-linejoin:miter;"/><path d="M848.81,833.079l-189.202,189.203" style="fill:none;stroke:#e6e6e6;stroke-width:2px;stroke-linecap:butt;stroke-linejoin:miter;"/></g></svg>