<?xml version="1.0" encoding="UTF-8" standalone="no"?><!DOCTYPE svg PUBLIC "-//W3C//DTD SVG 1.1//EN" "http://www.w3.org/Graphics/SVG/1.1/DTD/svg11.dtd"><svg width="100%" height="100%" viewBox="0 0 703 414" version="1.1" xmlns="http://www.w3.org/2000/svg" xmlns:xlink="http://www.w3.org/1999/xlink" xml:space="preserve" style="fill-rule:evenodd;clip-rule:evenodd;stroke-linejoin:round;stroke-miterlimit:1.41421;"><rect id="boersen" x="0" y="0" width="702.7" height="413.789" style="fill:none;"/><g><path d="M232.249,167.041c0,0 -48.992,45.195 -52.959,48.732c-0.648,-2.372 -1.213,-4.206 -1.213,-9.629c0,-15.618 9.775,-21.514 19.175,-21.514c1.426,0 5.683,0.073 9.506,2.204l15.046,-16.816c-3.645,-1.791 -11.444,-5.22 -24.563,-5.22c-27.394,0 -46.896,16.908 -46.896,40.676c0,25.835 15.767,43.509 46.92,43.509c29.149,0 46.923,-16.945 46.923,-43.331c0,-16.089 -8.942,-25.367 -10.648,-27.298l12.26,-11.313l-13.551,0l0,0Zm-35.101,61.989c-5.865,0 -10.502,-1.98 -13.44,-4.833c0,0 30.244,-27.832 30.885,-28.439c0.313,0.675 1.622,3.837 1.622,10.362c0,6.526 -2.029,22.91 -19.067,22.91Z" style="fill-rule:nonzero;"/><path d="M308.732,215.71c11.046,-0.127 27.505,-3.93 27.505,-25.23c0,-21.299 -21.197,-23.284 -37.775,-23.284l-42.398,0l0,79.43l27.878,0l0,-27.983l7.851,0l17.85,27.983l33.326,0l-21.194,-28.612l-13.043,-2.304Zm-13.44,-13.353l-11.35,0l0,-18.529l11.35,0c8.644,0 13.437,2.359 13.437,9.264c0.001,6.767 -4.474,9.265 -13.437,9.265Z" style="fill-rule:nonzero;"/><path d="M394.609,197.038c-17.808,-1.701 -21.329,-2.712 -21.329,-6.964c0,-4.049 5.458,-6.185 15.381,-6.185c9.922,0 18.894,3.079 21.773,5.138c0.696,-0.971 11.741,-16.39 11.741,-16.39c-8.758,-4.789 -21.156,-7.829 -38.607,-7.829c-15.478,0 -38.688,5.429 -38.688,27.986c0,22.397 31.711,23.511 37.368,24.239c9.206,1.178 15.386,2.535 15.386,6.987c0,2.643 -1.735,6.349 -15.097,6.349c-13.506,0 -22.169,-5.109 -25.836,-7.921c-0.403,0.585 -11.955,16.225 -11.955,16.225c2.377,1.812 13.93,10.318 38.78,10.318c28.567,0 41.878,-11.295 41.878,-27.535c0,-16.642 -12.179,-22.638 -30.795,-24.418Z" style="fill-rule:nonzero;"/><path d="M463.513,229.414l0.012,-14.015l36.283,0l0,-17.107l-36.283,0l0,-13.863l44.994,0l0,-17.232l-72.723,0l0,79.431l73.028,0l-0.011,-17.214l-45.3,0Z" style="fill-rule:nonzero;"/><rect x="616.31" y="220.558" width="26.058" height="26.07"/><path d="M578.832,198.192l2.916,20.929c0,0 -4.264,-8.815 -12.302,-21.775c-0.231,-0.372 -19.753,-30.15 -19.753,-30.15l-29.43,0l0,79.431l25.968,0l0,-31.594l-3.103,-19.397c0,0 2.001,3.74 4.397,8.014c2.289,4.092 4.579,7.502 4.579,7.502l22.81,35.477l29.91,0l0,-79.432l-25.992,0l0,30.995Z" style="fill-rule:nonzero;"/><path d="M133.391,207.58c-3.529,-0.601 -12.398,-1.977 -12.398,-1.977l11.643,-2.072c3.246,-1.621 8.495,-6.815 8.495,-16.807c0,-16.035 -14.349,-19.528 -31.958,-19.528l-48.805,0l0,79.429l49.759,0c21.763,0 33.398,-6.093 33.34,-22.753c-0.032,-9.142 -5.697,-14.418 -10.076,-16.292Zm-45.571,-23.629l16.434,0c6.558,0 8.784,2.998 8.784,6.286c0,3.289 -0.526,7.442 -8.811,7.442l-16.407,0l0,-13.728Zm16.407,45.572l-16.407,0l0,-15.411l16.407,0c7.882,0 10.997,2.792 10.941,7.469c-0.057,4.863 -2.497,7.942 -10.941,7.942Z" style="fill-rule:nonzero;"/></g></svg>