<?xml version="1.0" encoding="UTF-8" standalone="no"?><!DOCTYPE svg PUBLIC "-//W3C//DTD SVG 1.1//EN" "http://www.w3.org/Graphics/SVG/1.1/DTD/svg11.dtd"><svg width="100%" height="100%" viewBox="0 0 714 414" version="1.1" xmlns="http://www.w3.org/2000/svg" xmlns:xlink="http://www.w3.org/1999/xlink" xml:space="preserve" style="fill-rule:evenodd;clip-rule:evenodd;stroke-linejoin:round;stroke-miterlimit:1.41421;"><rect id="vaekstfonden" x="0" y="0" width="713.9" height="413.789" style="fill:none;"/><path id="Vækstfonden" d="M290.289,213.631c0,5.267 -2.975,9.072 -11.342,9.144l-32.046,0l0,-5.223l32.361,0c2.97,0 4.364,-1.318 4.364,-3.879c0,-2.532 -1.265,-4.081 -4.076,-4.081c-0.912,0 -23.827,0 -23.827,0c-4.791,0 -8.991,-2.938 -8.991,-9.033c0,-6.104 4.118,-9.521 9.25,-9.521l33.521,0l0,5.27l-32.121,0c-2.687,-0.017 -4.146,1.444 -4.146,3.728c0,2.341 1.245,3.741 4.284,3.741c2.298,0 20.967,0 22.152,0c6.312,0 10.617,2.77 10.617,9.854m120.376,9.333c3.744,0 5.79,-0.027 8.24,-0.186c8.387,-0.55 12.96,-4.073 13.416,-11.218c0,0 0.164,-1.774 0.164,-5.163c0,-3.402 -0.164,-5.454 -0.164,-5.454c-0.4,-6.405 -4.059,-9.594 -12.766,-9.905c-2.721,-0.1 -4.853,-0.213 -9.134,-0.213c-4.304,0 -8.226,0.213 -8.226,0.213c-7.8,0.107 -12.359,3.615 -12.905,10.35c0,0 -0.183,1.217 -0.183,5.343c0,4.13 0.183,5.827 0.183,5.827c0.608,7.254 4.396,9.743 13.672,10.22c2.682,0.145 3.954,0.186 7.703,0.186m7.569,-26.656c5.354,0.378 7.041,1.017 7.439,6.539c0,0 0.143,0.974 0.143,3.31c0,2.309 -0.143,4.677 -0.143,4.677c-0.341,4.032 -2.223,6.14 -6.858,6.718c-1.576,0.196 -4.199,0.196 -8.187,0.196c-3.992,0 -5.349,0 -7.666,-0.196c-5.114,-0.409 -6.635,-1.87 -6.956,-5.962c0,0 -0.194,-2.405 -0.194,-5.072c0,-2.694 0.194,-4.181 0.194,-4.181c0.366,-4.93 2.903,-5.825 6.279,-6.029c0,0 4.686,-0.217 8.188,-0.217c4.406,0 5.77,0.065 7.761,0.217Zm83.383,-5.27c0,0 -0.722,0 -1.026,0c0,0.487 0,31.263 0,31.74c0.268,0 11.384,0.115 18.098,0.115c6.276,0 8.005,-0.115 8.005,-0.115c10.57,-0.536 14.194,-3.076 14.987,-11.001c0,0 0.276,-1.893 0.276,-4.91c0,-3.014 -0.181,-5.095 -0.181,-5.095c-0.544,-8.311 -5.991,-10.54 -15.309,-10.734c0,0 -4.594,-0.089 -10.224,-0.089c-5.67,0 -14.626,0.089 -14.626,0.089m5.858,5.263c0,0 3.902,-0.086 8.688,-0.086c4.762,0 10.29,0.093 10.29,0.093c5.365,0.224 8.267,1.697 8.663,6.521c0,0 0.244,1.376 0.244,3.664c0,2.277 -0.229,4.385 -0.229,4.385c-0.46,5.145 -3.479,6.405 -9.298,6.666c0,0 -2.43,0.117 -6.645,0.117c-4.251,0 -11.941,-0.117 -11.941,-0.117l0,-21.243l0.228,0Zm-385.704,-5.263l-7.661,0.004l-17.66,26.51l-6.983,0l-15.683,-26.514l-7.846,0l19.449,31.74l15.025,0l21.359,-31.74m213.988,0c0,0 -40.264,0.004 -40.257,0c0.013,0 0,5.225 0,5.225l16.782,0l0,26.512l6.692,0l0,-26.512l16.783,0l0,-5.225m-185.424,22.854c-0.179,4.462 2.771,8.886 8.931,8.886l27.761,0l0,-5.216l-25.685,0c-2.984,0 -4.322,-1.356 -4.322,-3.595l0,-4.688l30.007,0l0,-5.314l-36.692,-0.004l0,9.931m-20.031,-15.202c-0.007,0.006 -16.316,24.088 -16.316,24.088l7.585,0l14.079,-20.67c3.488,-4.852 5.849,-5.659 11.997,-5.845l39.378,0l0,-5.225l-41.828,0c-6.666,0 -11.278,2.675 -14.895,7.652m358.892,24.088l0,-31.733l-6.697,0l0,26.507c0,0 -1.15,0 -1.475,0c-2.919,0 -4.459,-0.491 -6.972,-4.406c-3.553,-5.851 -8.274,-13.938 -9.867,-16.036c-2.53,-3.252 -5.706,-6.065 -11.296,-6.065c-4.01,0 -9.194,0 -9.194,0l0,31.733l6.208,0l0,-26.463c0,0 1.224,0 1.878,0c3.284,0 5.61,1.705 7.988,5.451c1.338,2.152 5.064,8.172 8.43,13.699c3.167,5.242 5.647,7.313 13.568,7.313c4.333,0 7.429,0 7.429,0m158.766,0l0,-31.733l-6.667,0l0,26.507c0,0 -1.155,0 -1.469,0c-2.927,0 -4.488,-0.491 -6.994,-4.406c-3.566,-5.851 -8.259,-13.938 -9.876,-16.036c-2.481,-3.252 -5.684,-6.065 -11.265,-6.065c-4.026,0 -9.24,0 -9.24,0l0,31.733l6.228,0l0,-26.463c0,0 1.214,0 1.869,0c3.307,0 5.631,1.705 8.009,5.451c1.334,2.152 5.05,8.172 8.39,13.699c3.189,5.242 5.681,7.313 13.618,7.313c4.329,0 7.397,0 7.397,0m-294.287,-26.518l28.562,0l0,-5.222c0,0 -26.875,0 -30.915,0c-5.355,0 -8.263,3.022 -8.263,8.295l-0.004,23.442l6.742,0l0,-13.501l32.437,0l0,-5.309l-32.437,0l0,-3.492c0,-3.235 1.428,-4.213 3.878,-4.213m208.316,21.292c-2.11,0 -3.316,-1.027 -3.316,-3.708l0,-4.565l32.447,0l0,-5.316l-32.447,0.001l0,-3.753c0,-2.475 0.735,-3.945 3.571,-3.945l28.871,0l0.003,-5.228c0,0 -26.393,0 -30.471,0c-5.098,0 -8.702,2.813 -8.702,8.346c0,0 0.065,15.728 0.065,15.789c0,4.776 3.202,7.602 9.278,7.602l29.831,0l0,-5.223c-0.21,0 -29.13,0 -29.13,0m-358.158,-26.514c-0.42,0 -6.278,0 -6.686,0c0,0.487 0,31.263 0,31.74c0.408,0 6.266,0 6.686,0l0,-31.74Zm27.757,31.74l10.915,0l-26.104,-16.158l25.171,-15.583l-9.983,0c-0.007,0.004 -0.026,0.004 -0.026,0.004c-0.211,0.094 -21.786,12.924 -21.786,12.924l0,5.313l21.813,13.5Z" style="fill-rule:nonzero;"/></svg>