<?xml version="1.0" encoding="UTF-8" standalone="no"?><!DOCTYPE svg PUBLIC "-//W3C//DTD SVG 1.1//EN" "http://www.w3.org/Graphics/SVG/1.1/DTD/svg11.dtd"><svg width="100%" height="100%" viewBox="0 0 49 38" version="1.1" xmlns="http://www.w3.org/2000/svg" xmlns:xlink="http://www.w3.org/1999/xlink" xml:space="preserve" style="fill-rule:evenodd;clip-rule:evenodd;stroke-linejoin:round;stroke-miterlimit:1.41421;"><path d="M37.727,37.609l-2.21,0l0,-9.903l2.092,0l0,0.825l0.03,0c0.206,-0.265 0.501,-0.501 0.855,-0.707c0.353,-0.206 0.796,-0.295 1.297,-0.295c0.471,0 0.913,0.089 1.326,0.295c0.383,0.177 0.737,0.442 1.002,0.766c0.265,0.324 0.472,0.708 0.619,1.12c0.147,0.325 0.236,0.767 0.236,1.238c0,0.472 -0.059,0.914 -0.206,1.356c-0.148,0.442 -0.354,0.796 -0.619,1.15c-0.266,0.324 -0.619,0.589 -1.003,0.795c-0.383,0.207 -0.854,0.295 -1.355,0.295c-0.413,0 -0.796,-0.088 -1.179,-0.236c-0.354,-0.177 -0.649,-0.383 -0.855,-0.678l-0.03,0l0,3.979Zm-5.777,-2.299c-0.147,0.354 -0.294,0.649 -0.442,0.944c-0.177,0.265 -0.353,0.501 -0.589,0.707c-0.236,0.206 -0.501,0.324 -0.796,0.442c-0.295,0.089 -0.678,0.148 -1.091,0.148c-0.206,0 -0.412,0 -0.648,-0.03c-0.206,-0.029 -0.413,-0.059 -0.56,-0.118l0.236,-1.857c0.118,0.03 0.236,0.059 0.353,0.089c0.118,0.029 0.236,0.029 0.354,0.029c0.354,0 0.59,-0.088 0.737,-0.236c0.147,-0.147 0.295,-0.383 0.383,-0.678l0.206,-0.56l-2.8,-6.572l2.447,0l1.503,4.303l0.029,0l1.327,-4.303l2.328,0l-2.977,7.692Zm-11.613,-5.541c-0.117,-0.147 -0.294,-0.294 -0.501,-0.383c-0.206,-0.088 -0.442,-0.147 -0.648,-0.147c-0.236,0 -0.442,0.059 -0.619,0.147c-0.177,0.089 -0.354,0.206 -0.472,0.383c-0.118,0.177 -0.235,0.324 -0.324,0.531c-0.088,0.206 -0.118,0.412 -0.118,0.648c0,0.236 0.03,0.442 0.118,0.649c0.059,0.206 0.177,0.383 0.324,0.53c0.148,0.148 0.295,0.295 0.501,0.383c0.207,0.089 0.413,0.148 0.649,0.148c0.236,0 0.442,-0.03 0.678,-0.118c0.206,-0.089 0.383,-0.206 0.53,-0.383l1.209,1.503c-0.266,0.265 -0.649,0.471 -1.061,0.619c-0.442,0.147 -0.914,0.236 -1.386,0.236c-0.53,0 -1.031,-0.089 -1.473,-0.236c-0.472,-0.148 -0.855,-0.383 -1.209,-0.708c-0.324,-0.294 -0.589,-0.677 -0.796,-1.12c-0.206,-0.442 -0.294,-0.943 -0.294,-1.503c0,-0.56 0.088,-1.031 0.294,-1.473c0.207,-0.443 0.472,-0.826 0.796,-1.121c0.324,-0.294 0.737,-0.56 1.209,-0.707c0.471,-0.177 0.943,-0.236 1.473,-0.236c0.236,0 0.472,0.03 0.708,0.059c0.236,0.059 0.471,0.118 0.678,0.177c0.206,0.089 0.412,0.177 0.619,0.295c0.176,0.118 0.353,0.236 0.471,0.383l-1.356,1.444Zm26.144,-0.501l0,2.564c0,0.325 0.059,0.56 0.177,0.708c0.118,0.147 0.324,0.236 0.649,0.236c0.117,0 0.235,0 0.353,-0.03c0.118,-0.029 0.236,-0.059 0.295,-0.088l0.03,1.621c-0.148,0.059 -0.354,0.088 -0.59,0.147c-0.236,0.03 -0.472,0.059 -0.707,0.059c-0.442,0 -0.826,-0.059 -1.12,-0.177c-0.295,-0.118 -0.56,-0.265 -0.737,-0.471c-0.177,-0.207 -0.324,-0.472 -0.383,-0.767c-0.059,-0.294 -0.118,-0.619 -0.118,-0.972l0,-2.83l-1.061,0l0,-1.65l1.061,0l0,-1.769l2.151,0l0,1.769l1.562,0l0,1.65l-1.562,0l0,0Zm-36.283,5.07l-2.21,0l0,-6.691l2.122,0l0,0.914l0.029,0c0.089,-0.148 0.177,-0.295 0.324,-0.413c0.118,-0.147 0.295,-0.265 0.443,-0.354c0.176,-0.088 0.353,-0.176 0.56,-0.235c0.206,-0.059 0.412,-0.089 0.648,-0.089c0.442,0 0.825,0.089 1.15,0.236c0.324,0.147 0.56,0.383 0.766,0.619c0.206,0.265 0.324,0.56 0.413,0.884c0.088,0.324 0.117,0.649 0.117,1.002l0,4.127l-2.122,0l0,-3.685c0,-0.176 -0.029,-0.353 -0.059,-0.53c-0.029,-0.177 -0.088,-0.324 -0.147,-0.442c-0.059,-0.118 -0.177,-0.236 -0.295,-0.295c-0.118,-0.088 -0.295,-0.118 -0.501,-0.118c-0.206,0 -0.383,0.03 -0.53,0.118c-0.148,0.089 -0.266,0.177 -0.384,0.324c-0.088,0.148 -0.176,0.295 -0.235,0.472c-0.059,0.177 -0.089,0.354 -0.089,0.53l0,3.626Zm-3.566,-0.03l-6.632,0l0,-9.52l6.396,0l0,1.945l-4.185,0l0,1.798l3.949,0l0,1.828l-3.949,0l0,1.975l4.421,0l0,1.974Zm18.009,0l-2.211,0l0,-6.69l2.122,0l0,0.972l0.03,0c0.177,-0.353 0.412,-0.619 0.737,-0.825c0.324,-0.206 0.678,-0.324 1.09,-0.324c0.089,0 0.177,0 0.265,0c0.089,0 0.148,0.029 0.207,0.029l-0.118,1.975c-0.089,-0.029 -0.206,-0.059 -0.295,-0.059l-0.265,0c-0.295,0 -0.531,0.059 -0.737,0.147c-0.206,0.118 -0.354,0.236 -0.472,0.384c-0.118,0.147 -0.206,0.324 -0.265,0.501c-0.059,0.177 -0.088,0.324 -0.088,0.471l0,3.419Zm16.181,-3.36c0,-0.206 -0.029,-0.412 -0.088,-0.619c-0.059,-0.206 -0.177,-0.383 -0.295,-0.53c-0.118,-0.148 -0.295,-0.295 -0.501,-0.383c-0.206,-0.089 -0.413,-0.148 -0.678,-0.148c-0.265,0 -0.472,0.059 -0.678,0.148c-0.206,0.088 -0.354,0.235 -0.501,0.383c-0.147,0.147 -0.236,0.353 -0.324,0.56c-0.089,0.206 -0.118,0.412 -0.118,0.619c0,0.206 0.029,0.412 0.118,0.619c0.088,0.206 0.177,0.383 0.324,0.56c0.147,0.147 0.295,0.294 0.501,0.383c0.206,0.088 0.413,0.147 0.678,0.147c0.265,0 0.501,-0.059 0.678,-0.147c0.206,-0.089 0.354,-0.236 0.501,-0.383c0.118,-0.148 0.236,-0.354 0.295,-0.56c0.059,-0.236 0.088,-0.442 0.088,-0.649Zm-32.098,-10.404c0.03,0.177 0.089,0.353 0.177,0.501c0.089,0.147 0.207,0.295 0.354,0.383c0.147,0.118 0.324,0.206 0.501,0.265c0.177,0.059 0.383,0.089 0.56,0.089c0.354,0 0.649,-0.059 0.884,-0.207c0.236,-0.118 0.442,-0.294 0.59,-0.501l1.532,0.973c-0.324,0.472 -0.736,0.796 -1.237,1.061c-0.502,0.236 -1.12,0.383 -1.798,0.383c-0.501,0 -0.973,-0.088 -1.415,-0.236c-0.442,-0.147 -0.825,-0.383 -1.179,-0.678c-0.324,-0.294 -0.59,-0.677 -0.796,-1.12c-0.206,-0.442 -0.295,-0.943 -0.295,-1.503c0,-0.56 0.089,-1.031 0.295,-1.473c0.177,-0.443 0.442,-0.826 0.766,-1.121c0.325,-0.294 0.708,-0.56 1.15,-0.707c0.442,-0.177 0.914,-0.265 1.415,-0.265c0.501,0 0.943,0.088 1.355,0.236c0.413,0.176 0.767,0.412 1.062,0.707c0.294,0.324 0.53,0.707 0.677,1.15c0.177,0.471 0.266,0.972 0.266,1.532l0,0.531l-4.864,0Zm8.401,-2.299l0,2.564c0,0.324 0.059,0.56 0.177,0.707c0.117,0.148 0.324,0.236 0.648,0.236c0.118,0 0.236,0 0.354,-0.029c0.118,-0.03 0.235,-0.059 0.294,-0.089l0.03,1.621c-0.147,0.059 -0.354,0.089 -0.59,0.148c-0.235,0.029 -0.471,0.059 -0.707,0.059c-0.442,0 -0.825,-0.059 -1.12,-0.177c-0.295,-0.118 -0.56,-0.265 -0.737,-0.472c-0.177,-0.206 -0.324,-0.471 -0.383,-0.766c-0.059,-0.295 -0.118,-0.619 -0.118,-0.973l0,-2.829l-1.091,0l0,-1.651l1.062,0l0,-1.768l2.181,0l0,1.768l1.562,0l0,1.651l-1.562,0l0,0Zm8.695,0.324c-0.177,-0.177 -0.383,-0.324 -0.619,-0.442c-0.236,-0.118 -0.501,-0.177 -0.767,-0.177c-0.206,0 -0.383,0.029 -0.56,0.118c-0.176,0.088 -0.265,0.206 -0.265,0.413c0,0.176 0.089,0.324 0.295,0.412c0.206,0.089 0.501,0.177 0.943,0.265c0.265,0.059 0.501,0.118 0.766,0.236c0.266,0.118 0.472,0.236 0.678,0.383c0.207,0.148 0.383,0.354 0.501,0.59c0.118,0.236 0.177,0.501 0.177,0.825c0,0.413 -0.088,0.767 -0.265,1.061c-0.177,0.295 -0.383,0.531 -0.678,0.708c-0.265,0.176 -0.589,0.294 -0.914,0.383c-0.353,0.088 -0.678,0.118 -1.031,0.118c-0.56,0 -1.091,-0.089 -1.592,-0.266c-0.53,-0.176 -0.973,-0.442 -1.297,-0.766l1.238,-1.297c0.206,0.207 0.442,0.383 0.737,0.531c0.295,0.147 0.589,0.206 0.914,0.206c0.177,0 0.353,-0.029 0.53,-0.118c0.177,-0.088 0.265,-0.236 0.265,-0.442c0,-0.206 -0.117,-0.354 -0.324,-0.472c-0.206,-0.088 -0.56,-0.206 -1.002,-0.294c-0.236,-0.059 -0.471,-0.118 -0.707,-0.207c-0.236,-0.088 -0.442,-0.206 -0.619,-0.353c-0.177,-0.148 -0.324,-0.354 -0.442,-0.56c-0.118,-0.236 -0.177,-0.501 -0.177,-0.796c0,-0.413 0.088,-0.737 0.265,-1.032c0.177,-0.294 0.383,-0.501 0.649,-0.678c0.265,-0.176 0.56,-0.324 0.884,-0.383c0.324,-0.088 0.648,-0.118 0.972,-0.118c0.501,0 1.003,0.089 1.474,0.236c0.472,0.147 0.884,0.383 1.209,0.707l-1.238,1.209Zm6.69,-5.983l0,-1.445c0,-2.711 2.211,-4.892 4.893,-4.892c2.712,0 4.893,2.21 4.893,4.892l0,1.445l1.149,0c0.502,0 0.914,0.412 0.944,0.943l0,8.931c0,0.53 -0.413,0.943 -0.944,0.943l-12.084,0c-0.531,0 -0.943,-0.413 -0.943,-0.943l0,-8.931c0,-0.531 0.412,-0.943 0.943,-0.943l1.149,0Zm-26.527,10.699l-5.983,0l0,-9.52l2.299,0l0,7.516l3.684,0l0,2.004Zm32.01,-4.834l0,1.209c0,0.324 -0.266,0.618 -0.619,0.618c-0.325,0 -0.619,-0.265 -0.619,-0.618l0,-1.209c-0.383,-0.206 -0.619,-0.619 -0.619,-1.091c0,-0.677 0.56,-1.237 1.238,-1.237c0.678,0 1.238,0.56 1.238,1.237c0.029,0.472 -0.236,0.885 -0.619,1.091Zm-26.439,0.707c-0.007,-0.34 -0.124,-0.626 -0.324,-0.884c-0.207,-0.265 -0.56,-0.383 -1.002,-0.383c-0.207,0 -0.413,0.03 -0.59,0.088c-0.177,0.059 -0.324,0.148 -0.471,0.266c-0.148,0.118 -0.236,0.265 -0.325,0.412c-0.088,0.148 -0.118,0.325 -0.147,0.501l2.859,0c0,0.01 0,0.02 0,0.03l0,-0.03l0,0Zm8.223,-2.564c0.443,-0.059 0.885,-0.412 1.003,-0.884c-0.03,0.029 -0.089,0.029 -0.148,0.029c-0.648,0 -1.09,-0.412 -1.09,-1.061c0,-0.619 0.53,-1.09 1.179,-1.09c0.736,0 1.267,0.589 1.267,1.385c0,0.825 -0.265,1.533 -0.766,2.004c-0.384,0.354 -0.885,0.59 -1.415,0.649l-0.118,0l0,-1.032l0.088,0Zm19.719,-4.008l0,-1.445c0,-1.149 -0.943,-2.092 -2.093,-2.092c-1.149,0 -2.093,0.943 -2.093,2.092l0,1.445l4.186,0Zm-9.373,-1.327l-2.918,0c-0.472,0 -0.855,-0.383 -0.855,-0.854c0,-0.472 0.383,-0.855 0.855,-0.855l2.918,0c0.472,0 0.855,0.383 0.855,0.855c0,0.471 -0.383,0.854 -0.855,0.854Zm17.449,0l-2.948,0c-0.471,0 -0.854,-0.383 -0.854,-0.854c0,-0.472 0.383,-0.855 0.854,-0.855l2.948,0c0.471,0 0.855,0.383 0.855,0.855c0,0.471 -0.384,0.854 -0.855,0.854Zm-15.386,-4.598c-0.177,0 -0.383,-0.059 -0.53,-0.206l-2.299,-1.886c-0.354,-0.295 -0.413,-0.826 -0.118,-1.209c0.294,-0.354 0.825,-0.413 1.208,-0.118l2.299,1.887c0.354,0.294 0.413,0.825 0.118,1.208c-0.206,0.206 -0.442,0.324 -0.678,0.324Zm10.405,0c-0.236,0 -0.501,-0.118 -0.649,-0.324c-0.295,-0.354 -0.236,-0.914 0.118,-1.208l2.299,-1.887c0.354,-0.295 0.914,-0.236 1.209,0.118c0.294,0.354 0.235,0.914 -0.118,1.209l-2.299,1.886c-0.177,0.147 -0.354,0.206 -0.56,0.206Zm-5.188,-2.004c-0.471,0 -0.855,-0.383 -0.855,-0.855l0,-2.947c0,-0.472 0.384,-0.855 0.855,-0.855c0.472,0 0.855,0.383 0.855,0.855l0,2.947c0,0.472 -0.383,0.855 -0.855,0.855Z" style="fill:#b2b2b2;"/></svg>