<?xml version="1.0" encoding="UTF-8" standalone="no"?><!DOCTYPE svg PUBLIC "-//W3C//DTD SVG 1.1//EN" "http://www.w3.org/Graphics/SVG/1.1/DTD/svg11.dtd"><svg width="100%" height="100%" viewBox="0 0 86 16" version="1.1" xmlns="http://www.w3.org/2000/svg" xmlns:xlink="http://www.w3.org/1999/xlink" xml:space="preserve" style="fill-rule:evenodd;clip-rule:evenodd;stroke-linejoin:round;stroke-miterlimit:1.41421;"><g><g id="XMLID_23_"><rect x="8.972" y="1.626" width="6.65" height="11.949" style="fill:#c3c3c3;"/><path id="XMLID_35_" d="M9.394,7.6c0,-2.428 1.14,-4.581 2.893,-5.974c-1.288,-1.014 -2.914,-1.626 -4.687,-1.626c-4.201,0 -7.6,3.399 -7.6,7.6c0,4.201 3.399,7.6 7.6,7.6c1.773,0 3.399,-0.612 4.687,-1.626c-1.753,-1.393 -2.893,-3.546 -2.893,-5.974Z" style="fill:#b2b2b2;fill-rule:nonzero;"/><path d="M24.594,7.6c0,4.201 -3.398,7.6 -7.6,7.6c-1.773,0 -3.398,-0.612 -4.686,-1.626c1.773,-1.393 2.892,-3.546 2.892,-5.974c0,-2.428 -1.14,-4.581 -2.892,-5.974c1.288,-1.014 2.913,-1.626 4.686,-1.626c4.202,0 7.6,3.399 7.6,7.6Z" style="fill:#d3d3d3;fill-rule:nonzero;"/></g><path id="XMLID_622_" d="M37.683,10.154l0,-3.166c0,-1.204 -0.76,-2.006 -1.984,-2.006c-0.655,0 -1.309,0.19 -1.773,0.908c-0.359,-0.57 -0.908,-0.908 -1.668,-0.908c-0.549,0 -1.077,0.169 -1.478,0.76l0,-0.633l-1.098,0l0,5.045l1.119,0l0,-2.807c0,-0.887 0.486,-1.351 1.246,-1.351c0.739,0 1.097,0.485 1.097,1.33l0,2.807l1.119,0l0,-2.807c0,-0.887 0.507,-1.352 1.246,-1.352c0.76,0 1.119,0.486 1.119,1.33l0,2.808l1.055,0l0,0.042Zm16.425,-5.045l-1.795,0l0,-1.541l-1.119,0l0,1.541l-1.034,0l0,1.013l1.034,0l0,2.301c0,1.183 0.465,1.879 1.753,1.879c0.485,0 1.034,-0.148 1.372,-0.401l-0.317,-0.95c-0.338,0.19 -0.696,0.296 -0.971,0.296c-0.549,0 -0.739,-0.338 -0.739,-0.845l0,-2.28l1.795,0l0,-1.013l0.021,0Zm9.373,-0.127c-0.633,0 -1.055,0.296 -1.33,0.739l0,-0.612l-1.098,0l0,5.045l1.098,0l0,-2.828c0,-0.845 0.359,-1.309 1.077,-1.309c0.232,0 0.464,0.042 0.696,0.126l0.338,-1.034c-0.232,-0.085 -0.549,-0.127 -0.781,-0.127Zm-14.165,0.528c-0.528,-0.359 -1.267,-0.528 -2.069,-0.528c-1.288,0 -2.111,0.612 -2.111,1.626c0,0.823 0.612,1.33 1.752,1.499l0.528,0.084c0.612,0.085 0.886,0.253 0.886,0.528c0,0.401 -0.401,0.612 -1.161,0.612c-0.76,0 -1.309,-0.253 -1.689,-0.528l-0.528,0.866c0.613,0.443 1.373,0.654 2.196,0.654c1.457,0 2.301,-0.696 2.301,-1.646c0,-0.887 -0.675,-1.351 -1.773,-1.52l-0.528,-0.085c-0.486,-0.063 -0.866,-0.169 -0.866,-0.506c0,-0.38 0.359,-0.592 0.972,-0.592c0.654,0 1.266,0.254 1.583,0.444l0.507,-0.908Zm29.45,-0.528c-0.634,0 -1.056,0.296 -1.33,0.739l0,-0.612l-1.098,0l0,5.045l1.098,0l0,-2.828c0,-0.845 0.358,-1.309 1.076,-1.309c0.232,0 0.465,0.042 0.697,0.126l0.338,-1.034c-0.233,-0.085 -0.549,-0.127 -0.781,-0.127Zm-14.166,2.66c0,1.541 1.077,2.66 2.702,2.66c0.76,0 1.267,-0.169 1.816,-0.612l-0.528,-0.887c-0.422,0.296 -0.844,0.465 -1.33,0.465c-0.887,0 -1.52,-0.655 -1.52,-1.626c0,-0.971 0.654,-1.604 1.52,-1.625c0.486,0 0.908,0.169 1.33,0.464l0.528,-0.887c-0.549,-0.443 -1.056,-0.612 -1.816,-0.612c-1.625,0 -2.702,1.119 -2.702,2.66Zm10.302,0l0,-2.533l-1.098,0l0,0.612c-0.358,-0.464 -0.886,-0.739 -1.604,-0.739c-1.414,0 -2.533,1.119 -2.533,2.66c0,1.541 1.119,2.66 2.533,2.66c0.718,0 1.246,-0.295 1.604,-0.739l0,0.613l1.098,0l0,-2.534Zm-4.095,0c0,-0.886 0.591,-1.625 1.541,-1.625c0.908,0 1.52,0.696 1.52,1.625c0,0.929 -0.612,1.626 -1.52,1.626c-0.95,-0.021 -1.541,-0.739 -1.541,-1.626Zm-13.279,-2.66c-1.478,0 -2.512,1.077 -2.512,2.66c0,1.605 1.076,2.66 2.596,2.66c0.76,0 1.457,-0.19 2.069,-0.718l-0.549,-0.823c-0.422,0.338 -0.971,0.528 -1.478,0.528c-0.717,0 -1.351,-0.338 -1.52,-1.246l3.758,0c0.021,-0.147 0.021,-0.274 0.021,-0.422c0.021,-1.562 -0.971,-2.639 -2.385,-2.639Zm-0.021,0.971c0.717,0 1.161,0.444 1.287,1.225l-2.617,0c0.105,-0.718 0.549,-1.225 1.33,-1.225Zm27.592,1.689l0,-4.56l-1.098,0l0,2.639c-0.359,-0.464 -0.887,-0.739 -1.604,-0.739c-1.415,0 -2.534,1.119 -2.534,2.66c0,1.541 1.119,2.66 2.534,2.66c0.717,0 1.245,-0.295 1.604,-0.739l0,0.613l1.098,0l0,-2.534Zm-4.096,0c0,-0.886 0.591,-1.625 1.541,-1.625c0.908,0 1.52,0.696 1.52,1.625c0,0.929 -0.612,1.626 -1.52,1.626c-0.95,-0.021 -1.541,-0.739 -1.541,-1.626Zm-37.134,0l0,-2.533l-1.098,0l0,0.612c-0.359,-0.464 -0.887,-0.739 -1.604,-0.739c-1.415,0 -2.534,1.119 -2.534,2.66c0,1.541 1.119,2.66 2.534,2.66c0.717,0 1.245,-0.295 1.604,-0.739l0,0.613l1.098,0l0,-2.534Zm-4.096,0c0,-0.886 0.591,-1.625 1.541,-1.625c0.908,0 1.52,0.696 1.52,1.625c0,0.929 -0.612,1.626 -1.52,1.626c-0.95,-0.021 -1.541,-0.739 -1.541,-1.626Z" style="fill:#b2b2b2;fill-rule:nonzero;"/></g></svg>