<?xml version="1.0" encoding="UTF-8" standalone="no"?><!DOCTYPE svg PUBLIC "-//W3C//DTD SVG 1.1//EN" "http://www.w3.org/Graphics/SVG/1.1/DTD/svg11.dtd"><svg width="100%" height="100%" viewBox="0 0 42 14" version="1.1" xmlns="http://www.w3.org/2000/svg" xmlns:xlink="http://www.w3.org/1999/xlink" xml:space="preserve" style="fill-rule:evenodd;clip-rule:evenodd;stroke-linejoin:round;stroke-miterlimit:1.41421;"><path id="visa" d="M20.6,0.3l-2.8,13l-3.4,0l2.8,-13l3.4,0Zm14.1,8.4l1.8,-4.9l1,4.9l-2.8,0Zm3.8,4.6l3.1,0l-2.7,-13l-2.9,0c-0.6,0 -1.2,0.4 -1.4,1l-5,12l3.5,0l0.7,-1.9l4.3,0l0.4,1.9Zm-8.8,-4.3c0,-3.4 -4.7,-3.6 -4.7,-5.1c0.1,-0.7 0.7,-1.1 1.4,-1.1c1.1,-0.1 2.3,0.1 3.3,0.6l0.6,-2.8c-1,-0.4 -2.1,-0.6 -3.1,-0.6c-3.3,0 -5.7,1.8 -5.7,4.3c0,1.9 1.7,2.9 2.9,3.5c1.3,0.6 1.8,1 1.7,1.6c0,0.9 -1,1.3 -2,1.3c-1.2,0 -2.4,-0.3 -3.5,-0.8l-0.6,2.8c1.2,0.5 2.5,0.7 3.7,0.7c3.7,0.1 6,-1.7 6,-4.4m-13.9,-8.7l-5.4,13l-3.6,0l-2.7,-10.4c0,-0.5 -0.4,-0.9 -0.8,-1.1c-1,-0.5 -2.1,-0.9 -3.3,-1.1l0.1,-0.4l5.7,0c0.8,0 1.4,0.6 1.5,1.3l1.4,7.5l3.6,-8.8l3.5,0Z" style="fill:#b2b2b2;fill-rule:nonzero;"/></svg>