<?xml version="1.0" encoding="UTF-8" standalone="no"?><!DOCTYPE svg PUBLIC "-//W3C//DTD SVG 1.1//EN" "http://www.w3.org/Graphics/SVG/1.1/DTD/svg11.dtd"><svg width="100%" height="100%" viewBox="0 0 779 414" version="1.1" xmlns="http://www.w3.org/2000/svg" xmlns:xlink="http://www.w3.org/1999/xlink" xml:space="preserve" style="fill-rule:evenodd;clip-rule:evenodd;stroke-linejoin:round;stroke-miterlimit:1.41421;"><rect id="_365design" x="0" y="0" width="778.6" height="413.789" style="fill:none;"/><g><path d="M183.911,236.773l16.911,0l0,7.017c0,10.255 2.518,16.193 9.895,16.193c7.377,0 9.895,-5.938 9.895,-16.193l0,-15.293c0,-11.876 -3.059,-15.653 -15.292,-15.653l-4.498,0l0,-15.112l5.757,0c10.795,0 13.494,-2.88 13.494,-15.654l0,-14.393c0,-11.154 -3.418,-13.853 -8.456,-13.853c-7.377,0 -10.791,5.731 -10.791,15.988l-0.038,4.521l-16.912,0c-0.652,-24.976 6.332,-33.463 27.741,-33.463c21.049,0 25.368,9.895 25.368,34.544c0,22.489 -2.88,26.986 -15.833,29.325l0,0.36c11.155,1.8 16.371,4.678 16.371,35.804c0,23.388 -5.395,32.025 -26.806,32.025c-21.409,0 -26.806,-8.637 -26.806,-32.025l0,-4.138Z" style="fill-rule:nonzero;"/><path d="M305.483,175.242l-16.535,-0.131l0,-6.298c-0.134,-10.17 -3.829,-13.902 -11.025,-13.902c-7.557,0 -10.075,5.937 -10.075,16.193l0,23.928l0.359,0c4.138,-5.577 9.176,-7.556 16.912,-7.556c16.731,0 20.509,12.774 20.509,31.306l0,22.129c0,23.389 -5.398,32.026 -28.786,32.026c-18.889,0 -25.906,-7.018 -25.906,-29.868l0,-70.166c0,-23.389 7.556,-32.026 26.987,-32.026c19.07,0 26.626,8.637 27.56,22.85l0,11.515Zm-16.796,38.321c-0.136,-7.59 -2.757,-12.834 -10.764,-12.053c-6.984,0.682 -10.075,4.857 -10.075,16.372l0,25.908c0,8.635 0,16.191 10.075,16.191c12.044,0 10.693,-10.743 10.764,-16.191l0,-30.227Z" style="fill-rule:nonzero;"/><path d="M319.139,236.773l16.912,0l0,11.514c-0.564,7.474 1.78,11.696 8.977,11.696c10.615,0 10.615,-10.795 10.615,-18.353l0,-27.707c0,-9.176 -4.138,-12.413 -9.716,-12.413c-5.936,0 -9.895,4.678 -9.895,13.494l0,5.216l-16.912,0l0,-78.263l49.261,0l0,14.033l-32.349,0l0,39.762l0.36,0c4.678,-6.657 9.716,-8.277 16.192,-8.277c9.535,0 19.97,5.758 19.97,22.31l0,37.064c0,16.011 -7.555,26.087 -28.066,26.087c-17.812,0 -25.913,-8.719 -25.349,-22.129l0,-14.034Z" style="fill-rule:nonzero;"/><path d="M385.074,142.669l15.094,0c10.477,0 15.979,4.084 15.979,13.672l0,100.859c0,9.587 -5.502,13.671 -15.979,13.671l-15.094,0l0,-128.202Zm14.383,122.875c6.393,0 9.589,-2.307 9.589,-7.812l0,-101.925c0,-5.503 -3.196,-7.812 -9.589,-7.812l-7.279,0l0,117.549l7.279,0Z" style="fill-rule:nonzero;"/><path d="M427.867,142.669l24.325,0l0,5.326l-17.222,0l0,54.336l16.158,0l0,5.326l-16.158,0l0,57.887l17.263,0l0,5.327l-24.366,0l0,-128.202Z" style="fill-rule:nonzero;"/><path d="M464.621,258.442c0,4.262 1.597,7.812 8.168,7.812c6.037,0 8.7,-2.307 8.7,-8.168l0,-22.017c0,-6.748 -1.243,-10.654 -3.728,-16.515l-14.915,-28.232c-3.019,-5.683 -4.616,-12.43 -4.616,-17.402l0,-18.644c0,-8.346 5.68,-13.319 14.737,-13.319c9.588,0 14.559,3.552 14.559,11.898l0,22.906l-6.391,0l0,-22.195c0,-5.151 -2.666,-7.28 -7.636,-7.28c-4.972,0 -7.636,3.372 -7.636,7.634l0,19.888c0,4.262 0.889,7.99 2.842,12.252l14.559,27.878c3.019,6.037 4.472,12.218 4.453,19.354l0,24.15c0.129,8.149 -3.211,13.139 -14.396,13.139c-11.009,0 -15.091,-4.971 -15.091,-13.671l0,-22.73l6.391,0l0,23.262Z" style="fill-rule:nonzero;"/><rect x="499.288" y="142.668" width="7.101" height="128.203" style="fill-rule:nonzero;"/><path d="M535.454,209.079l13.548,0l0,58.597l-0.886,0.532c-2.842,1.775 -7.99,3.374 -14.561,3.374c-9.943,0 -15.626,-4.971 -15.626,-13.851l0,-101.923c0,-8.879 5.683,-13.849 15.626,-13.849c9.942,0 15.447,4.97 15.447,13.849l0,20.774l-7.101,0l0,-19.886c0,-5.683 -3.552,-9.411 -8.346,-9.411c-4.795,0 -8.524,3.728 -8.524,9.411l0,101.569c0,4.971 3.729,7.99 8.524,7.99c3.373,0 6.571,-1.066 8.346,-2.131l0,-49.719l-6.447,0l0,-5.326Z" style="fill-rule:nonzero;"/><path d="M560.502,142.669l10.653,0l12.076,82.745c1.418,10.121 3.488,23.706 5.797,39.154c0,0 -1.361,-33.295 -1.361,-40.218l0,-81.681l7.103,0l0,128.202l-10.653,0l-12.43,-81.679c-1.066,-6.927 -5.301,-40.521 -5.301,-40.521c0.354,16.691 1.217,32.351 1.217,36.613l0,85.587l-7.101,0l0,-128.202Z" style="fill-rule:nonzero;"/></g></svg>