<?xml version="1.0" encoding="UTF-8" standalone="no"?><!DOCTYPE svg PUBLIC "-//W3C//DTD SVG 1.1//EN" "http://www.w3.org/Graphics/SVG/1.1/DTD/svg11.dtd"><svg width="100%" height="100%" viewBox="0 0 932 414" version="1.1" xmlns="http://www.w3.org/2000/svg" xmlns:xlink="http://www.w3.org/1999/xlink" xml:space="preserve" style="fill-rule:evenodd;clip-rule:evenodd;stroke-linejoin:round;stroke-miterlimit:1.41421;"><rect id="nordjyske" x="0" y="0" width="931.2" height="413.789" style="fill:none;"/><g><path d="M623.858,234.443l0,-14.205l-20.939,0l0,-14.78l18.64,0l0,-13.959l-18.64,0l0,-13.22l20.611,0l0,-14.041l-38.347,0l0,70.205l38.675,0Z" style="fill-rule:nonzero;"/><path d="M623.858,234.443l0,-14.205l-20.939,0l0,-14.78l18.64,0l0,-13.959l-18.64,0l0,-13.22l20.611,0l0,-14.041l-38.347,0l0,70.205l38.675,0Z" style="fill-rule:nonzero;"/><path d="M582.883,234.443l-19.05,-37.853l16.341,-32.352l-19.461,0l-12.564,27.179l0,-27.179l-17.49,0l0,70.205l17.49,0l0,-28.903l13.878,28.903l20.856,0Z" style="fill-rule:nonzero;"/><path d="M582.883,234.443l-19.05,-37.853l16.341,-32.352l-19.461,0l-12.564,27.179l0,-27.179l-17.49,0l0,70.205l17.49,0l0,-28.903l13.878,28.903l20.856,0Z" style="fill-rule:nonzero;"/><path d="M526.882,213.587c0,-21.924 -27.755,-21.267 -27.755,-31.202c0,-3.203 1.971,-5.502 6.57,-5.502c3.859,0 8.375,1.56 13.302,3.941l5.748,-11.988c-6.405,-3.941 -13.056,-5.912 -20.2,-5.912c-13.631,0 -23.074,7.472 -23.074,20.61c0,21.924 27.262,20.774 27.262,31.366c0,3.942 -2.382,6.241 -6.98,6.241c-4.27,0 -9.443,-1.807 -14.945,-4.763l-5.748,12.81c7.637,4.598 14.37,6.486 22.007,6.486c12.974,0 23.813,-7.061 23.813,-22.087" style="fill-rule:nonzero;"/><path d="M526.882,213.587c0,-21.924 -27.755,-21.267 -27.755,-31.202c0,-3.203 1.971,-5.502 6.57,-5.502c3.859,0 8.375,1.56 13.302,3.941l5.748,-11.988c-6.405,-3.941 -13.056,-5.912 -20.2,-5.912c-13.631,0 -23.074,7.472 -23.074,20.61c0,21.924 27.262,20.774 27.262,31.366c0,3.942 -2.382,6.241 -6.98,6.241c-4.27,0 -9.443,-1.807 -14.945,-4.763l-5.748,12.81c7.637,4.598 14.37,6.486 22.007,6.486c12.974,0 23.813,-7.061 23.813,-22.087" style="fill-rule:nonzero;"/><path d="M484.183,164.238l-18.476,0l-5.337,15.519l-3.121,9.361l-3.366,-9.607l-5.338,-15.273l-19.461,0l19.461,44.75l0,25.455l16.669,0l0,-25.455l18.969,-44.75Z" style="fill-rule:nonzero;"/><path d="M484.183,164.238l-18.476,0l-5.337,15.519l-3.121,9.361l-3.366,-9.607l-5.338,-15.273l-19.461,0l19.461,44.75l0,25.455l16.669,0l0,-25.455l18.969,-44.75Z" style="fill-rule:nonzero;"/><path d="M427.278,227.71l0,-63.472l-17.819,0l0,62.733c0,6.158 -1.478,9.607 -6.815,9.607c-1.971,0 -4.188,-0.329 -6.159,-0.657l-0.246,13.876c2.792,0.739 5.83,1.068 10.018,1.068c12.317,-0.082 21.021,-8.211 21.021,-23.155" style="fill-rule:nonzero;"/><path d="M427.278,227.71l0,-63.472l-17.819,0l0,62.733c0,6.158 -1.478,9.607 -6.815,9.607c-1.971,0 -4.188,-0.329 -6.159,-0.657l-0.246,13.876c2.792,0.739 5.83,1.068 10.018,1.068c12.317,-0.082 21.021,-8.211 21.021,-23.155" style="fill-rule:nonzero;"/><path d="M385.728,199.053c0,14.944 -3.777,21.924 -13.959,21.924c-0.41,0 -3.038,-0.083 -4.516,-0.247l0,-42.862c1.478,-0.082 3.859,-0.082 4.434,-0.082c10.839,0 14.041,6.816 14.041,21.267m18.312,-0.246c0,-26.768 -9.854,-34.815 -32.599,-34.815c-7.226,0 -14.699,0.082 -21.76,0.246l0,70.287c5.665,0.082 11.66,0.246 20.528,0.246c23.484,-0.082 33.831,-12.07 33.831,-35.964m-77.269,-13.631c0,4.024 -1.642,7.801 -9.197,7.801l-4.598,0l0,-15.191c1.56,-0.082 3.12,-0.246 4.598,-0.246c7.801,0 9.197,3.12 9.197,7.636m20.364,49.267l-12.481,-32.27c6.569,-2.956 10.182,-9.607 10.182,-17.9c0,-12.727 -7.965,-20.117 -25.866,-20.117c-7.554,0 -17.162,0 -23.485,0.246l0,70.123l17.409,0l0,-28.328l4.598,0l9.525,28.246l20.118,0Zm-73.82,-35.226c0,15.765 -3.121,22.088 -11.66,22.088c-9.033,0 -11.496,-7.062 -11.496,-22.006c0,-15.847 3.038,-22.087 11.66,-22.087c8.95,0 11.496,6.979 11.496,22.005m18.557,-0.082c0,-22.827 -5.747,-36.129 -29.56,-36.129l-0.822,0c-18.229,0 -29.889,10.1 -29.889,36.704c0,22.827 5.666,36.046 29.561,36.046l0.739,0c18.311,-0.082 29.971,-10.099 29.971,-36.621m-63.884,35.308l0,-70.205l-15.93,0l0,37.114l-17.737,-37.114l-19.707,0l0,70.287l15.93,0l0,-39.331l18.476,39.331l18.968,0l0,-0.082Zm157.74,-35.39c0,14.944 -3.777,21.924 -13.959,21.924c-0.41,0 -3.038,-0.083 -4.516,-0.247l0,-42.862c1.478,-0.082 3.859,-0.082 4.434,-0.082c10.839,0 14.041,6.816 14.041,21.267m18.312,-0.246c0,-26.768 -9.854,-34.815 -32.599,-34.815c-7.226,0 -14.699,0.082 -21.76,0.246l0,70.287c5.665,0.082 11.66,0.246 20.528,0.246c23.484,-0.082 33.831,-12.07 33.831,-35.964m-77.269,-13.631c0,4.024 -1.642,7.801 -9.197,7.801l-4.598,0l0,-15.191c1.56,-0.082 3.12,-0.246 4.598,-0.246c7.801,0 9.197,3.12 9.197,7.636m20.364,49.267l-12.481,-32.27c6.569,-2.956 10.182,-9.607 10.182,-17.9c0,-12.727 -7.965,-20.117 -25.866,-20.117c-7.554,0 -17.162,0 -23.485,0.246l0,70.123l17.409,0l0,-28.328l4.598,0l9.525,28.246l20.118,0Zm-73.82,-35.226c0,15.765 -3.121,22.088 -11.66,22.088c-9.033,0 -11.496,-7.062 -11.496,-22.006c0,-15.847 3.038,-22.087 11.66,-22.087c8.95,0 11.496,6.979 11.496,22.005m18.557,-0.082c0,-22.827 -5.747,-36.129 -29.56,-36.129l-0.822,0c-18.229,0 -29.889,10.1 -29.889,36.704c0,22.827 5.666,36.046 29.561,36.046l0.739,0c18.311,-0.082 29.971,-10.099 29.971,-36.621m-63.884,35.308l0,-70.205l-15.93,0l0,37.114l-17.737,-37.114l-19.707,0l0,70.287l15.93,0l0,-39.331l18.476,39.331l18.968,0l0,-0.082Z" style="fill-rule:nonzero;"/><g><path d="M647.178,164.402c7.062,-0.082 14.452,-0.246 21.596,-0.246c22.499,0 32.271,7.965 32.271,34.569c0,23.729 -10.264,35.636 -33.502,35.636c-8.787,0 -14.781,-0.083 -20.365,-0.247l0,-69.712Zm17.491,56.164c1.478,0.082 4.023,0.246 4.434,0.246c10.1,0 13.795,-6.979 13.795,-21.759c0,-14.287 -3.12,-21.102 -13.877,-21.102c-0.493,0 -2.874,0 -4.352,0.082l0,42.533Z" style="fill-rule:nonzero;"/><path d="M735.943,234.196l-13.466,-28.738l-0.329,0l0,28.738l-17.326,0l0,-69.794l17.326,0l0,27.015l0.329,0l12.153,-27.015l19.296,0l-16.176,32.188l18.886,37.606l-20.693,0Z" style="fill-rule:nonzero;"/></g><rect x="628.785" y="220.648" width="13.795" height="13.795"/></g></svg>