<?xml version="1.0" encoding="UTF-8" standalone="no"?><!DOCTYPE svg PUBLIC "-//W3C//DTD SVG 1.1//EN" "http://www.w3.org/Graphics/SVG/1.1/DTD/svg11.dtd"><svg width="100%" height="100%" viewBox="0 0 441 414" version="1.1" xmlns="http://www.w3.org/2000/svg" xmlns:xlink="http://www.w3.org/1999/xlink" xml:space="preserve" style="fill-rule:evenodd;clip-rule:evenodd;stroke-linejoin:round;stroke-miterlimit:1.41421;"><rect id="toj" x="0" y="0" width="440.4" height="413.789" style="fill:none;"/><g><g><g transform="matrix(1.82149,0,0,1.82149,-306.23,63.4172)"><text x="216.319px" y="113.14px" style="font-family:'Arial-BoldMT', 'Arial', sans-serif;font-weight:700;font-size:8.864px;">F</text><text x="223.166px" y="113.14px" style="font-family:'Arial-BoldMT', 'Arial', sans-serif;font-weight:700;font-size:8.864px;">A</text><text x="231.157px" y="113.14px" style="font-family:'Arial-BoldMT', 'Arial', sans-serif;font-weight:700;font-size:8.864px;">S</text><text x="237.869px" y="113.14px" style="font-family:'Arial-BoldMT', 'Arial', sans-serif;font-weight:700;font-size:8.864px;">H</text><text x="245.57px" y="113.14px" style="font-family:'Arial-BoldMT', 'Arial', sans-serif;font-weight:700;font-size:8.864px;">I</text><text x="249.544px" y="113.14px" style="font-family:'Arial-BoldMT', 'Arial', sans-serif;font-weight:700;font-size:8.864px;">O</text><text x="258.107px" y="113.14px" style="font-family:'Arial-BoldMT', 'Arial', sans-serif;font-weight:700;font-size:8.864px;">N</text><text x="269.865px" y="113.14px" style="font-family:'Arial-BoldMT', 'Arial', sans-serif;font-weight:700;font-size:8.864px;">&amp;</text><text x="280.839px" y="113.14px" style="font-family:'Arial-BoldMT', 'Arial', sans-serif;font-weight:700;font-size:8.864px;">B</text><text x="288.24px" y="113.14px" style="font-family:'Arial-BoldMT', 'Arial', sans-serif;font-weight:700;font-size:8.864px;">U</text><text x="295.941px" y="113.14px" style="font-family:'Arial-BoldMT', 'Arial', sans-serif;font-weight:700;font-size:8.864px;">S</text><text x="302.653px" y="113.14px" style="font-family:'Arial-BoldMT', 'Arial', sans-serif;font-weight:700;font-size:8.864px;">I</text><text x="306.627px" y="113.14px" style="font-family:'Arial-BoldMT', 'Arial', sans-serif;font-weight:700;font-size:8.864px;">N</text><text x="314.618px" y="113.14px" style="font-family:'Arial-BoldMT', 'Arial', sans-serif;font-weight:700;font-size:8.864px;">E</text><text x="321.53px" y="113.14px" style="font-family:'Arial-BoldMT', 'Arial', sans-serif;font-weight:700;font-size:8.864px;">S</text><text x="328.242px" y="113.14px" style="font-family:'Arial-BoldMT', 'Arial', sans-serif;font-weight:700;font-size:8.864px;">S</text><text x="338.727px" y="113.14px" style="font-family:'Arial-BoldMT', 'Arial', sans-serif;font-weight:700;font-size:8.864px;">T</text><text x="345.441px" y="113.14px" style="font-family:'Arial-BoldMT', 'Arial', sans-serif;font-weight:700;font-size:8.864px;">R</text><text x="352.843px" y="113.14px" style="font-family:'Arial-BoldMT', 'Arial', sans-serif;font-weight:700;font-size:8.864px;">E</text><text x="359.855px" y="113.14px" style="font-family:'Arial-BoldMT', 'Arial', sans-serif;font-weight:700;font-size:8.864px;">N</text><text x="367.845px" y="113.14px" style="font-family:'Arial-BoldMT', 'Arial', sans-serif;font-weight:700;font-size:8.864px;">D</text><text x="375.836px" y="113.14px" style="font-family:'Arial-BoldMT', 'Arial', sans-serif;font-weight:700;font-size:8.864px;">S</text></g><path d="M388.099,196.536l0,-55.669l-28.191,0l0,50.197c0,6.779 0.475,15.463 -4.162,18.437c-3.45,2.261 -26.406,1.903 -29.499,0.357c-5.592,-2.617 -4.878,-13.561 -4.878,-16.177l-27.121,0l0,2.973c0,8.446 -0.832,21.648 6.425,29.499c7.85,8.089 17.366,7.614 27.952,7.614l19.745,0c9.755,0 25.217,-0.12 32.711,-7.851c7.732,-8.207 7.018,-23.909 7.018,-29.38m-98.845,-0.596l0,-19.27c0,-6.541 0.832,-20.816 -6.423,-27.714c-8.446,-8.207 -21.648,-8.089 -32.83,-8.089l-20.004,0l0,22.72l12.63,0c4.519,0 13.084,-0.833 17.128,6.185c0.832,1.308 1.428,6.066 1.428,11.301l0,12.608c0,4.995 -0.596,9.873 -1.428,11.299c-4.044,6.9 -12.609,6.067 -17.128,6.067l-12.63,0l0,22.72l19.41,0c6.541,0 25.574,-0.357 33.424,-8.326c7.494,-7.614 6.423,-21.53 6.423,-29.501m-83.976,37.827l19.4,0l0,-22.72l-13.692,0c-4.639,0 -13.204,0.833 -17.366,-6.067c-0.832,-1.426 -1.189,-6.065 -1.189,-11.299l0,-12.608c0,-5.949 0.357,-9.993 1.189,-11.301c4.162,-7.018 12.727,-6.185 17.366,-6.185l13.692,0l0,-22.72l-20.114,0c-11.062,0 -24.266,-0.237 -32.711,8.089c-8.208,7.969 -7.732,21.173 -7.732,27.714l0,19.27c0,6.186 0.237,21.887 7.732,29.501c7.849,7.969 24.74,8.326 33.425,8.326m-29.78,-92.894l-18.393,0l0,-0.006l-107.292,0l0,22.72l39.253,0l0,70.18l28.071,0l0,-70.18l43.631,0c0,-15.585 14.73,-22.714 14.73,-22.714" style="fill-rule:nonzero;"/></g></g></svg>