<?xml version="1.0" encoding="UTF-8" standalone="no"?><!DOCTYPE svg PUBLIC "-//W3C//DTD SVG 1.1//EN" "http://www.w3.org/Graphics/SVG/1.1/DTD/svg11.dtd"><svg width="100%" height="100%" viewBox="0 0 50 16" version="1.1" xmlns="http://www.w3.org/2000/svg" xmlns:xlink="http://www.w3.org/1999/xlink" xml:space="preserve" style="fill-rule:evenodd;clip-rule:evenodd;stroke-linejoin:round;stroke-miterlimit:1.41421;"><path id="american-express" d="M25.4,6.6l0,-1.3c0,-0.5 -0.5,-1 -1,-1l-1.4,0l0,2.3l-1.5,0l0,-6.5l3.7,0c0.9,-0.1 1.8,0.5 1.9,1.4l0,0.5c0,0.6 -0.3,1.2 -0.9,1.5c0.5,0.3 0.8,0.9 0.7,1.5l0,1.6l-1.5,0m-2.5,-3.8l1.6,0c0.3,0.1 0.7,-0.1 0.8,-0.4c0.1,-0.3 -0.1,-0.7 -0.4,-0.8l-2,0l0,1.2m21.3,3.8l-2.4,-4.4l0,4.4l-3,0l-0.5,-1.4l-2.8,0l-0.5,1.4l-3.2,0c0,0 -2,-0.3 -2,-3.1c0,-3.4 1.7,-3.5 2.4,-3.5l1.9,0l0,1.5l-1.5,0c-0.7,0.1 -1.2,0.7 -1.1,1.4l0,0.5c0,2.2 2.6,1.5 2.7,1.5l1.9,-4.9l2.1,0l2.3,5.9l0,-5.8l2.1,0l2.4,4.3l0,-4.3l1.5,0l0,6.6l-2.3,-0.1m-8,-3l1.5,0l-0.7,-1.9l-0.8,1.9m-22.7,3l0,-4.5l-1.9,4.5l-1.2,0l-1.9,-4.5l0,4.5l-3,0l-0.5,-1.4l-2.8,0l-0.5,1.4l-1.7,0l2.5,-6.6l2.1,0l2.3,6l0,-5.9l2.4,0l1.7,4.1l1.7,-4.1l2.4,0l0,6.6l-1.6,-0.1m-10.7,-3l1.5,0l-0.7,-1.9l-0.8,1.9m13.1,3l0,-6.5l4.7,0l0,1.5l-3.2,0l0,1l3.1,0l0,1.5l-3.1,0l0,1.1l3.2,0l0,1.4l-4.7,0m11.8,0.1l0,-6.6l1.5,0l0,6.6l-1.5,0m3.3,8.4l0,-1.3c0,-0.6 -0.5,-1 -1.1,-1l-1.6,0l0,2.3l-1.6,0l0,-6.5l3.9,0c1,-0.2 1.9,0.5 2,1.5l0,0.4c0,0.6 -0.3,1.2 -0.9,1.5c0.5,0.3 0.8,0.9 0.8,1.5l0,1.6l-1.5,0m-2.6,-3.8l1.7,0c0.3,0.1 0.7,-0.1 0.8,-0.4c0.1,-0.3 -0.1,-0.7 -0.4,-0.8c-0.1,-0.1 -0.3,-0.1 -0.4,0l-1.7,0l0,1.2m-8.1,3.8l-1.4,0l-1.7,-1.9l-1.7,1.9l-6,0l0,-6.5l5.9,0l1.8,2.1l1.9,-2.1l5.1,0c1,-0.1 1.9,0.5 2,1.5l0,0.4c0,1.9 -0.7,2.5 -2.8,2.5l-1.6,0l0,2.1l-1.5,0m-2,-3.2l2,2.3l0,-4.5l-2,2.2m-7.2,1.8l3.4,0l1.6,-1.8l-1.6,-1.8l-3.4,0l0,1l3.3,0l0,1.5l-3.3,0l0,1.1m10.8,-2.4l1.7,0c0.3,0.1 0.7,-0.1 0.8,-0.4c0.1,-0.3 -0.1,-0.7 -0.4,-0.8c-0.1,-0.1 -0.3,-0.1 -0.4,0l-1.7,0l0,1.2m20.1,3.8l-2.9,0l0,-1.5l2.5,0c0,0 0.9,0.1 0.9,-0.5c0,-0.6 -1.4,-0.5 -1.4,-0.5c-1.1,0.2 -2,-0.6 -2.2,-1.6l0,-0.3c-0.1,-1 0.7,-1.9 1.7,-2l3.4,0l0,1.4l-2.5,0c0,0 -0.9,-0.2 -0.9,0.5c0,0.5 1.2,0.5 1.2,0.5c0,0 2.5,-0.2 2.5,1.8c0.1,1.1 -0.6,2.1 -1.8,2.3l-0.4,0l-0.1,-0.1m-8.6,0l0,-6.5l5,0l0,1.5l-3.4,0l0,1l3.3,0l0,1.5l-3.3,0l0,1.1l3.4,0l0,1.4l-5,0m14.2,0l-2.9,0l0,-1.5l2.5,0c0,0 0.9,0.1 0.9,-0.5c0,-0.6 -1.4,-0.5 -1.4,-0.5c-1.1,0.2 -2,-0.6 -2.2,-1.7l0,-0.3c-0.1,-1 0.7,-1.9 1.7,-2l3.4,0l0,1.5l-2.5,0c0,0 -0.9,-0.2 -0.9,0.5c0,0.5 1.2,0.5 1.2,0.5c0,0 2.5,-0.2 2.5,1.8c0.1,1.1 -0.6,2.1 -1.8,2.3l-0.4,0c0,-0.1 0,-0.1 -0.1,-0.1" style="fill:#b2b2b2;fill-rule:nonzero;"/></svg>