<?xml version="1.0" encoding="UTF-8" standalone="no"?><!DOCTYPE svg PUBLIC "-//W3C//DTD SVG 1.1//EN" "http://www.w3.org/Graphics/SVG/1.1/DTD/svg11.dtd"><svg width="100%" height="100%" viewBox="0 0 375 35" version="1.1" xmlns="http://www.w3.org/2000/svg" xmlns:xlink="http://www.w3.org/1999/xlink" xml:space="preserve" style="fill-rule:evenodd;clip-rule:evenodd;stroke-linejoin:round;stroke-miterlimit:1.41421;"><rect id="Modsvar-logo" x="0" y="0" width="375" height="35" style="fill:none;"/><clipPath id="_clip1"><rect x="0" y="0" width="375" height="35"/></clipPath><g clip-path="url(#_clip1)"><g id="logo"><g><path d="M81.658,2.011c-8.505,0 -15.424,4.496 -15.424,10.024c0,5.493 6.919,9.961 15.424,9.961c8.531,0 15.472,-4.468 15.472,-9.961c0,-5.528 -6.941,-10.024 -15.472,-10.024m0,21.985c-9.771,0 -17.424,-5.254 -17.424,-11.961c0,-6.742 7.653,-12.024 17.424,-12.024c9.797,0 17.472,5.282 17.472,12.024c0,6.707 -7.675,11.961 -17.472,11.961" style="fill-rule:nonzero;"/><path d="M81.658,13.003c-8.505,0 -15.424,4.497 -15.424,10.024c0,5.494 6.919,9.962 15.424,9.962c8.531,0 15.472,-4.468 15.472,-9.962c0,-5.527 -6.941,-10.024 -15.472,-10.024m0,21.986c-9.771,0 -17.424,-5.255 -17.424,-11.962c0,-6.742 7.653,-12.024 17.424,-12.024c9.797,0 17.472,5.282 17.472,12.024c0,6.707 -7.675,11.962 -17.472,11.962" style="fill-rule:nonzero;"/><rect x="64.233" y="12.035" width="2" height="10.992"/><rect x="97.13" y="12.035" width="2" height="10.992"/><path d="M241.951,2l13.892,18.93l13.892,-18.93l-27.784,0Zm13.892,21.62c-0.318,0 -0.618,-0.151 -0.806,-0.408l-15.866,-21.62c-0.223,-0.304 -0.257,-0.707 -0.086,-1.044c0.17,-0.336 0.515,-0.548 0.892,-0.548l31.732,0c0.377,0 0.722,0.212 0.892,0.548c0.171,0.337 0.138,0.74 -0.086,1.044l-15.866,21.62c-0.188,0.257 -0.488,0.408 -0.806,0.408" style="fill-rule:nonzero;"/><path d="M241.951,13.379l13.892,18.931l13.892,-18.931l-27.784,0l0,0Zm13.892,21.621c-0.318,0 -0.618,-0.151 -0.806,-0.408l-15.866,-21.621c-0.223,-0.304 -0.257,-0.707 -0.086,-1.044c0.17,-0.336 0.515,-0.548 0.892,-0.548l31.732,0c0.377,0 0.722,0.212 0.892,0.548c0.171,0.337 0.138,0.74 -0.086,1.044l-15.866,21.621c-0.188,0.257 -0.488,0.408 -0.806,0.408" style="fill-rule:nonzero;"/><path d="M239.977,13.379c-0.552,0 -1,-0.447 -1,-1l0,-11.379c0,-0.553 0.448,-1 1,-1c0.552,0 1,0.447 1,1l0,11.379c0,0.553 -0.448,1 -1,1" style="fill-rule:nonzero;"/><path d="M255.843,35c-0.552,0 -1,-0.447 -1,-1l0,-11.38c0,-0.553 0.448,-1 1,-1c0.552,0 1,0.447 1,1l0,11.38c0,0.553 -0.448,1 -1,1" style="fill-rule:nonzero;"/><path d="M271.71,13.379c-0.552,0 -1,-0.447 -1,-1l0,-11.379c0,-0.553 0.448,-1 1,-1c0.552,0 1,0.447 1,1l0,11.379c0,0.553 -0.448,1 -1,1" style="fill-rule:nonzero;"/><path d="M5.313,1.817c0.046,-0.409 0.457,-0.73 0.821,-0.73l0.729,0c0.229,0 0.639,0.183 0.776,0.458l10.579,19.694l0.089,0l10.579,-19.694c0.137,-0.275 0.546,-0.458 0.775,-0.458l0.73,0c0.363,0 0.775,0.321 0.82,0.73l5.153,30.636c0.091,0.595 -0.32,1.004 -0.867,1.004l-5.381,0c-0.409,0 -0.821,-0.366 -0.864,-0.729l-2.054,-14.089l-0.091,0l-7.659,14.772c-0.137,0.275 -0.547,0.501 -0.775,0.501l-0.821,0c-0.273,0 -0.638,-0.226 -0.775,-0.501l-7.705,-14.772l-0.091,0l-2.006,14.089c-0.046,0.363 -0.412,0.729 -0.867,0.729l-5.381,0c-0.546,0 -0.956,-0.409 -0.866,-1.004l5.152,-30.636l0,0Z" style="fill-rule:nonzero;"/><path d="M141.37,26.708c5.152,0 8.891,-4.057 8.891,-9.254c0,-5.152 -3.739,-9.209 -8.891,-9.209l-4.377,0l0,18.463l4.377,0Zm-11.489,-24.298c0,-0.457 0.364,-0.867 0.821,-0.867l11.123,0c8.8,0 16.004,7.157 16.004,15.911c0,8.845 -7.204,16.001 -16.004,16.001l-11.123,0c-0.457,0 -0.821,-0.409 -0.821,-0.866l0,-30.179Z" style="fill-rule:nonzero;"/><path d="M188.939,29.127l2.143,-3.785c0.366,-0.592 1.23,-0.501 1.55,-0.272c0.183,0.089 3.465,2.507 6.474,2.507c1.825,0 3.147,-1.139 3.147,-2.736c0,-1.916 -1.596,-3.375 -4.697,-4.605c-3.92,-1.551 -8.846,-4.605 -8.846,-10.075c0,-4.513 3.513,-9.073 10.534,-9.073c4.74,0 8.39,2.417 9.757,3.421c0.547,0.318 0.456,1.139 0.273,1.458l-2.326,3.51c-0.318,0.501 -1.139,0.912 -1.548,0.592c-0.412,-0.228 -3.739,-2.735 -6.52,-2.735c-1.642,0 -2.875,1.093 -2.875,2.326c0,1.686 1.37,2.964 4.972,4.423c3.556,1.413 9.209,4.193 9.209,10.393c0,4.696 -4.057,9.436 -10.76,9.436c-5.927,0 -9.211,-2.46 -10.258,-3.51c-0.458,-0.455 -0.593,-0.638 -0.229,-1.275" style="fill-rule:nonzero;"/><path d="M312.705,22.743l-3.467,-7.523l-0.045,0l-3.419,7.523l6.931,0Zm-18.741,9.757l14.272,-30.682c0.138,-0.274 0.456,-0.503 0.776,-0.503l0.455,0c0.32,0 0.638,0.229 0.775,0.503l14.27,30.682c0.275,0.592 -0.089,1.185 -0.775,1.185l-5.061,0c-0.821,0 -1.185,-0.275 -1.594,-1.139l-1.642,-3.603l-12.401,0l-1.642,3.648c-0.229,0.547 -0.73,1.094 -1.642,1.094l-5.015,0c-0.684,0 -1.048,-0.593 -0.776,-1.185" style="fill-rule:nonzero;"/><path d="M364.321,15.175c1.868,0 3.465,-1.733 3.465,-3.648c0,-1.914 -1.597,-3.464 -3.465,-3.464l-6.748,0l0,7.112l6.748,0Zm-13.906,-12.764c0,-0.458 0.363,-0.867 0.864,-0.867l13.634,0c5.471,0 9.939,4.422 9.939,9.846c0,4.194 -2.781,7.569 -6.748,9.165l6.247,11.58c0.318,0.591 0,1.32 -0.775,1.32l-6.065,0c-0.363,0 -0.638,-0.227 -0.729,-0.408l-6.063,-12.084l-3.146,0l0,11.626c0,0.458 -0.412,0.866 -0.867,0.866l-5.427,0c-0.501,0 -0.864,-0.408 -0.864,-0.866l0,-30.179l0,0.001Z" style="fill-rule:nonzero;"/></g></g></g></svg>