<?xml version="1.0" encoding="UTF-8" standalone="no"?>
<!DOCTYPE svg PUBLIC "-//W3C//DTD SVG 1.1//EN" "http://www.w3.org/Graphics/SVG/1.1/DTD/svg11.dtd">
<svg width="100%" height="100%" viewBox="0 0 75 75" version="1.1" xmlns="http://www.w3.org/2000/svg" xmlns:xlink="http://www.w3.org/1999/xlink" xml:space="preserve" style="fill-rule:evenodd;clip-rule:evenodd;stroke-linejoin:round;stroke-miterlimit:1.41421;">
    <g id="Layer-1" transform="matrix(0.571915,0,0,0.571915,16.0532,16.0532)">
        <g transform="matrix(1,0,0,1,-545.054,-2.5522)">
            <path d="M551.025,4.871L582.554,47.838L614.083,4.871L551.025,4.871ZM582.554,53.944C581.832,53.944 581.152,53.599 580.725,53.017L544.715,3.945C544.209,3.254 544.133,2.339 544.52,1.576C544.907,0.813 545.689,0.332 546.545,0.332L618.564,0.332C619.419,0.332 620.202,0.813 620.588,1.576C620.975,2.339 620.9,3.254 620.393,3.945L584.384,53.017C583.956,53.599 583.277,53.944 582.554,53.944" style="fill:rgb(29,30,28);fill-rule:nonzero;"/>
        </g>
        <g transform="matrix(1,0,0,1,-545.054,-2.5522)">
            <path d="M551.025,30.7L582.554,73.667L614.083,30.7L551.025,30.7ZM582.554,79.773C581.832,79.773 581.152,79.428 580.725,78.846L544.715,29.774C544.209,29.083 544.133,28.168 544.52,27.405C544.907,26.642 545.689,26.161 546.545,26.161L618.564,26.161C619.419,26.161 620.202,26.642 620.588,27.405C620.975,28.168 620.9,29.083 620.393,29.774L584.384,78.846C583.956,79.428 583.277,79.773 582.554,79.773" style="fill:rgb(29,30,28);fill-rule:nonzero;"/>
        </g>
        <g transform="matrix(1,0,0,1,-545.054,-2.5522)">
            <path d="M546.544,30.7C545.291,30.7 544.274,29.684 544.274,28.43L544.274,2.602C544.274,1.348 545.291,0.332 546.544,0.332C547.797,0.332 548.814,1.348 548.814,2.602L548.814,28.43C548.814,29.684 547.797,30.7 546.544,30.7" style="fill:rgb(29,30,28);fill-rule:nonzero;"/>
        </g>
        <g transform="matrix(1,0,0,1,-545.054,-2.5522)">
            <path d="M582.554,79.773C581.301,79.773 580.284,78.757 580.284,77.503L580.284,51.675C580.284,50.421 581.301,49.405 582.554,49.405C583.807,49.405 584.824,50.421 584.824,51.675L584.824,77.503C584.824,78.757 583.807,79.773 582.554,79.773" style="fill:rgb(29,30,28);fill-rule:nonzero;"/>
        </g>
        <g transform="matrix(1,0,0,1,-545.054,-2.5522)">
            <path d="M618.564,30.7C617.31,30.7 616.294,29.684 616.294,28.43L616.294,2.602C616.294,1.348 617.31,0.332 618.564,0.332C619.817,0.332 620.834,1.348 620.834,2.602L620.834,28.43C620.834,29.684 619.817,30.7 618.564,30.7" style="fill:rgb(29,30,28);fill-rule:nonzero;"/>
        </g>
    </g>
</svg>
