<?xml version="1.0" encoding="UTF-8" standalone="no"?><!DOCTYPE svg PUBLIC "-//W3C//DTD SVG 1.1//EN" "http://www.w3.org/Graphics/SVG/1.1/DTD/svg11.dtd"><svg width="100%" height="100%" viewBox="0 0 31 32" version="1.1" xmlns="http://www.w3.org/2000/svg" xmlns:xlink="http://www.w3.org/1999/xlink" xml:space="preserve" style="fill-rule:evenodd;clip-rule:evenodd;stroke-linejoin:round;stroke-miterlimit:1.41421;"><rect id="Artboard1" x="0" y="0" width="30.8" height="32" style="fill:none;"/><clipPath id="_clip1"><rect id="Artboard11" x="0" y="0" width="30.8" height="32"/></clipPath><g clip-path="url(#_clip1)"><path d="M2.719,1.83l12.701,17.307l12.701,-17.307l-25.403,0l0.001,0Zm12.702,19.766c-0.291,0 -0.565,-0.138 -0.737,-0.373l-14.506,-19.767c-0.204,-0.278 -0.235,-0.646 -0.079,-0.955c0.156,-0.309 0.471,-0.501 0.816,-0.501l29.012,0c0.345,0 0.66,0.194 0.816,0.501c0.156,0.307 0.126,0.677 -0.079,0.955l-14.506,19.767c-0.172,0.235 -0.446,0.373 -0.737,0.373Z" style="fill-rule:nonzero;"/><path d="M2.719,12.233l12.701,17.308l12.701,-17.308l-25.403,0l0.001,0Zm12.702,19.768c-0.291,0 -0.565,-0.138 -0.737,-0.373l-14.506,-19.768c-0.204,-0.278 -0.235,-0.646 -0.079,-0.954c0.156,-0.308 0.471,-0.501 0.816,-0.501l29.012,0c0.345,0 0.66,0.194 0.816,0.501c0.156,0.307 0.126,0.677 -0.079,0.954l-14.506,19.768c-0.172,0.235 -0.446,0.373 -0.737,0.373Z" style="fill-rule:nonzero;"/><path d="M0.915,12.233c-0.505,0 -0.914,-0.409 -0.914,-0.914l0,-10.404c0,-0.506 0.41,-0.914 0.914,-0.914c0.504,0 0.914,0.409 0.914,0.914l0,10.404c0,0.506 -0.41,0.914 -0.914,0.914Z" style="fill-rule:nonzero;"/><path d="M15.421,32.001c-0.505,0 -0.914,-0.409 -0.914,-0.914l0,-10.405c0,-0.506 0.41,-0.914 0.914,-0.914c0.504,0 0.914,0.409 0.914,0.914l0,10.405c0,0.506 -0.41,0.914 -0.914,0.914Z" style="fill-rule:nonzero;"/><path d="M29.928,12.233c-0.505,0 -0.914,-0.409 -0.914,-0.914l0,-10.404c0,-0.506 0.41,-0.914 0.914,-0.914c0.504,0 0.914,0.409 0.914,0.914l0,10.404c0,0.506 -0.41,0.914 -0.914,0.914Z" style="fill-rule:nonzero;"/></g></svg>