<?xml version="1.0" standalone="no"?>
<!DOCTYPE svg PUBLIC "-//W3C//DTD SVG 20010904//EN"
 "http://www.w3.org/TR/2001/REC-SVG-20010904/DTD/svg10.dtd">
<svg version="1.0" xmlns="http://www.w3.org/2000/svg"
 width="16.000000pt" height="16.000000pt" viewBox="0 0 16.000000 16.000000"
 preserveAspectRatio="xMidYMid meet">
<metadata>
Created by potrace 1.11, written by Peter Selinger 2001-2013
</metadata>
<g transform="translate(0.000000,16.000000) scale(0.002286,-0.002286)"
fill="#000000" stroke="none">
<path d="M1519 5605 c-14 -8 -34 -27 -45 -42 -17 -27 -18 -66 -19 -738 0 -390
2 -720 5 -732 4 -20 123 -187 375 -528 45 -60 162 -220 261 -355 98 -135 182
-249 187 -255 8 -9 311 -423 594 -810 64 -88 154 -209 199 -270 44 -60 138
-189 209 -285 70 -96 139 -183 154 -192 30 -21 86 -23 119 -5 13 7 145 180
295 384 150 204 407 555 572 780 164 224 329 449 365 498 37 50 181 245 320
435 139 190 283 386 320 435 36 50 77 106 90 125 l24 34 0 726 c0 689 -1 726
-18 753 -41 61 106 57 -2028 57 -1666 -1 -1957 -3 -1979 -15z m3654 -239 c-9
-15 -358 -491 -638 -871 -28 -38 -82 -111 -119 -162 l-67 -91 -850 0 -850 0
-23 32 c-12 17 -67 92 -121 166 -54 74 -228 312 -387 527 -158 216 -288 397
-288 402 0 5 730 8 1675 8 1232 0 1673 -3 1668 -11z m-3240 -556 c119 -162
220 -299 224 -305 5 -5 50 -67 101 -137 l91 -127 -324 1 -325 0 0 441 c0 259
4 437 9 432 5 -6 106 -143 224 -305z m3367 -129 l0 -439 -325 0 c-305 0 -324
1 -312 17 85 118 632 861 634 861 2 0 3 -198 3 -439z m-2738 -729 c20 -26 212
-287 427 -580 l391 -534 0 -481 c0 -411 -2 -479 -14 -467 -8 8 -218 294 -468
635 -679 927 -893 1218 -983 1340 -45 61 -84 115 -88 122 -6 9 76 12 346 12
l353 1 36 -48z m1608 43 c0 -2 -6 -10 -13 -17 -7 -7 -42 -53 -77 -103 -35 -49
-67 -92 -70 -95 -5 -4 -192 -259 -230 -313 -57 -82 -273 -372 -279 -374 -3 -1
-40 44 -81 100 -41 56 -146 199 -233 317 -86 118 -192 262 -234 320 -42 58
-87 120 -101 137 l-24 33 671 -1 c369 0 671 -2 671 -4z m1004 -7 c-4 -6 -77
-106 -163 -223 -86 -117 -259 -354 -386 -527 -204 -278 -295 -402 -480 -653
-28 -38 -152 -207 -275 -375 -123 -168 -229 -311 -236 -319 -11 -12 -13 68
-13 467 l0 481 426 580 425 580 354 0 c258 0 353 -3 348 -11z"/>
</g>
</svg>
